<?xml version="1.0" standalone="no"?>
<!DOCTYPE svg PUBLIC "-//W3C//DTD SVG 1.1//EN" "http://www.w3.org/Graphics/SVG/1.1/DTD/svg11.dtd" >
<svg>
<metadata>
Created by FontForge 20090914 at Mon Mar 16 07:07:12 2015
 By www-data
\251 Dutch Design: Albert-Jan Pool, 1995. Published by FontShop International FontFont release 15
</metadata>
<defs>
<font id="DIN-Bold" horiz-adv-x="543" >
  <font-face 
    font-family="DIN"
    font-weight="700"
    font-stretch="normal"
    units-per-em="1000"
    panose-1="2 0 8 3 4 0 0 2 0 4"
    ascent="800"
    descent="-200"
    x-height="520.999"
    cap-height="712"
    bbox="-115 -206.004 1158 1015"
    underline-thickness="87"
    underline-position="-92"
    unicode-range="U+0005-U+2122"
  />
<missing-glyph horiz-adv-x="1000" 
 />
    <glyph glyph-name=".notdef" horiz-adv-x="1000" 
 />
    <glyph glyph-name="breve" horiz-adv-x="500" 
d="M414 742h-86.9971c-2.66699 -21.333 -11.167 -36.666 -25.5 -45.999s-31.166 -14 -50.499 -14s-36.333 4.66699 -51 14s-23.334 24.666 -26.001 45.999h-88c1.33301 -27.333 6.66602 -50.5 15.999 -69.5s21.5 -34.5 36.5 -46.5s32.167 -20.833 51.5 -26.5
s39.666 -8.5 60.999 -8.5s41.666 2.83301 60.999 8.5s36.333 14.5 51 26.5s26.5 27.5 35.5 46.5s14.167 42.167 15.5 69.5z" />
    <glyph glyph-name="dotaccent" horiz-adv-x="500" 
d="M317 608v106h-134v-106h134z" />
    <glyph glyph-name="ring" horiz-adv-x="500" 
d="M381 715c0 18 -3.5 35 -10.5 51s-16.333 30 -28 42s-25.5 21.333 -41.5 28s-33 10 -51 10s-35 -3.5 -51 -10.5s-29.833 -16.333 -41.5 -28s-21 -25.5 -28 -41.5s-10.5 -33 -10.5 -51s3.5 -35 10.5 -51s16.333 -29.833 28 -41.5s25.5 -21 41.5 -28s33 -10.5 51 -10.5
s35 3.5 51 10.5s29.833 16.333 41.5 28s21 25.5 28 41.5s10.5 33 10.5 51zM308 715c0 -16 -5.66699 -29.833 -17 -41.5s-25 -17.5 -41 -17.5s-29.667 5.83301 -41 17.5s-17 25.5 -17 41.5s5.66699 29.667 17 41s25 17 41 17s29.667 -5.66699 41 -17s17 -25 17 -41z" />
    <glyph glyph-name="hungarumlaut" unicode="&#xa;" horiz-adv-x="500" 
d="M465 774h-138l-63 -170h86zM258 774h-138l-63 -170h87z" />
    <glyph glyph-name="ogonek" horiz-adv-x="500" 
d="M334 -206l-68 146h-97l44 -146h121z" />
    <glyph glyph-name="caron" horiz-adv-x="500" 
d="M434 773h-101l-83 -90l-83 90h-101l132 -169h104z" />
    <glyph glyph-name="dotlessi" unicode="&#xd;" horiz-adv-x="275" 
d="M203 0v521h-130v-521h130z" />
    <glyph glyph-name="fraction" horiz-adv-x="208" 
d="M323 712h-101l-337 -712h101z" />
    <glyph glyph-name="fi" horiz-adv-x="602" 
d="M532 610v106h-134v-106h134zM530 0v506h-130v-506h130zM311 407v99.001h-96v57c0 31.333 15.333 47 46 47h50v110h-74c-26.667 0 -49.5 -4.33301 -68.5 -13s-34.667 -20 -47 -34s-21.5 -29.833 -27.5 -47.5s-9 -35.834 -9 -54.501v-65h-54v-99h54v-407h130v407h96z" />
    <glyph glyph-name="fl" horiz-adv-x="648" 
d="M624 0l0.000976562 110.001h-50c-16.667 0 -28.5 4 -35.5 12s-10.5 19.667 -10.5 35v555h-130v-563c0 -18.667 2.83301 -36.834 8.5 -54.501s14.667 -33.5 27 -47.5s28.166 -25.333 47.499 -34s42.333 -13 69 -13h74zM311.001 407.001v99.001h-96v57
c0 31.333 15.333 47 46 47h50v110h-74c-26.667 0 -49.5 -4.33301 -68.5 -13s-34.667 -20 -47 -34s-21.5 -29.833 -27.5 -47.5s-9 -35.834 -9 -54.501v-65h-54v-99h54v-407h130v407h96z" />
    <glyph glyph-name="Lslash" horiz-adv-x="593" 
d="M563 0v124h-323v208l128 81v115l-128 -81v265h-139v-352l-64 -41v-116l64 41v-244h462z" />
    <glyph glyph-name="lslash" horiz-adv-x="336" 
d="M309 0l0.000976562 110.001h-50c-16.667 0 -28.334 4 -35.001 12s-10 19.667 -10 35v223l60 38v109l-60 -37v222h-130v-300l-54 -34v-109l54 33v-153c0 -18.667 2.83301 -36.834 8.5 -54.501s14.667 -33.5 27 -47.5s28 -25.333 47 -34s41.833 -13 68.5 -13h74z" />
    <glyph glyph-name="Zcaron" horiz-adv-x="548" 
d="M508 0v124h-305l305 478v110h-455v-124h291l-304 -476v-112h468zM461 950h-101l-83 -90l-83 90h-101l132 -169h104z" />
    <glyph glyph-name="zcaron" horiz-adv-x="478" 
d="M434 0v117h-234l234 305v99h-384v-117h218l-231 -305v-99h397zM427 773h-101l-83 -90l-83 90h-101l132 -169h104z" />
    <glyph glyph-name="space" unicode=" " horiz-adv-x="232" 
 />
    <glyph glyph-name="space" unicode="&#xa0;" horiz-adv-x="232" 
 />
    <glyph glyph-name="exclam" unicode="!" horiz-adv-x="347" 
d="M272 712h-160l31 -489h98zM261 0v133h-138v-133h138z" />
    <glyph glyph-name="quotedbl" unicode="&#x22;" horiz-adv-x="464" 
d="M395 501v211h-121v-211h121zM190 501v211h-122v-211h122z" />
    <glyph glyph-name="numbersign" unicode="#" horiz-adv-x="691" 
d="M643 420v121h-69l27 177h-136l-28 -177h-116l28 177h-137l-28 -177h-89v-121h70l-16 -108h-89v-122h69l-30 -190h137l30 190h116l-31 -190h137l30 190h89v122h-69l16 108h89zM417 420l-16 -108h-116l17 108h115z" />
    <glyph glyph-name="dollar" unicode="$" horiz-adv-x="619" 
d="M571 210c0 32 -4.33203 60.498 -12.999 85.498s-22.667 46.5 -42 64.5c-15.333 14 -33.666 25.5 -54.999 34.5s-48.333 16.167 -81 21.5l-38 6v174c20.667 -1.33301 42.167 -5.66602 64.5 -12.999s41.833 -19 58.5 -35l88 87c-27.333 26 -56.833 45.5 -88.5 58.5
s-67.834 20.833 -108.501 23.5v89h-101v-90c-65.333 -7.33301 -116.333 -30.333 -153 -69s-55 -87 -55 -145c0 -58.667 17 -105 51 -139c15.333 -15.333 34.666 -28.166 57.999 -38.499s50 -17.5 80 -21.5l32 -4v-181c-30 1.33301 -58.667 6.33301 -86 15
s-51.666 23.667 -72.999 45l-90 -90c32.667 -33.333 68.167 -57 106.5 -71s81.5 -21.667 129.5 -23v-108h101v112c31.333 4 60.166 11.5 86.499 22.5s49 25.5 68 43.5s33.833 39.167 44.5 63.5s16 51.833 16 82.5zM268.001 427.998c-28.667 4 -50.667 13.333 -66 28
c-7.33301 7.33301 -12.666 15.333 -15.999 24s-5 17.667 -5 27c0 22 7.16699 41.167 21.5 57.5s36.166 26.5 65.499 30.5v-167zM435.001 205.998c0 -24.667 -8 -44.333 -24 -59s-39 -23.667 -69 -27v172c13.333 -2 26 -4.5 38 -7.5s23 -9.16699 33 -18.5
c14.667 -14 22 -34 22 -60z" />
    <glyph glyph-name="percent" unicode="%" horiz-adv-x="848" 
d="M796 131v99c0 22.667 -3.83301 42.5 -11.5 59.5s-18.167 31.167 -31.5 42.5s-28.833 20 -46.5 26s-36.167 9 -55.5 9c-20 0 -38.667 -3 -56 -9s-32.666 -14.667 -45.999 -26s-23.833 -25.5 -31.5 -42.5s-11.5 -36.833 -11.5 -59.5v-99
c0 -22.667 3.83301 -42.5 11.5 -59.5s18.167 -31.333 31.5 -43s28.666 -20.334 45.999 -26.001s36 -8.5 56 -8.5c19.333 0 37.833 2.83301 55.5 8.5s33.167 14.334 46.5 26.001s23.833 26 31.5 43s11.5 36.833 11.5 59.5zM644 712h-102l-337 -712h102zM342 482v99
c0 22.667 -3.83301 42.5 -11.5 59.5s-18.167 31.167 -31.5 42.5s-28.833 20 -46.5 26s-36.167 9 -55.5 9c-20 0 -38.667 -3 -56 -9s-32.666 -14.667 -45.999 -26s-23.833 -25.5 -31.5 -42.5s-11.5 -36.833 -11.5 -59.5v-99c0 -22.667 3.83301 -42.5 11.5 -59.5
s18.167 -31.333 31.5 -43s28.666 -20.334 45.999 -26.001s36 -8.5 56 -8.5c19.333 0 37.833 2.83301 55.5 8.5s33.167 14.334 46.5 26.001s23.833 26 31.5 43s11.5 36.833 11.5 59.5zM702 135c0 -19.333 -4.5 -33.668 -13.5 -43.001s-21.5 -14 -37.5 -14
c-34 0 -51 19 -51 57v91c0 38 17 57 51 57c16 0 28.5 -4.66699 37.5 -14s13.5 -23.666 13.5 -42.999v-91zM248 485.998c0 -19.333 -4.5 -33.667 -13.5 -43s-21.5 -14 -37.5 -14s-28.5 4.66699 -37.5 14s-13.5 23.666 -13.5 42.999v91c0 38 17 57 51 57
c16 0 28.5 -4.66699 37.5 -14s13.5 -23.666 13.5 -42.999v-91z" />
    <glyph glyph-name="ampersand" unicode="&#x26;" horiz-adv-x="721" 
d="M696 0l-128 150.997c25.333 28 43.666 60.333 54.999 97s18.333 78 21 124h-123c-1.33301 -25.333 -4.83301 -48.666 -10.5 -69.999s-14.167 -39.666 -25.5 -54.999l-120 142l21.5 15l20.5 15c5.33301 4 8.33301 6.33301 9 7c22 16 39.667 33.667 53 53s20 43 20 71
c0 24 -4.16699 46.333 -12.5 67s-20.5 38.5 -36.5 53.5s-35.167 26.667 -57.5 35s-47.5 12.5 -75.5 12.5c-30 0 -56.667 -4.16699 -80 -12.5s-43.166 -19.833 -59.499 -34.5s-28.833 -32.167 -37.5 -52.5s-13 -42.5 -13 -66.5c0 -17.333 2.33301 -33.333 7 -48
s10.5 -28.167 17.5 -40.5s14.667 -23.833 23 -34.5s16.166 -20 23.499 -28c-15.333 -10 -30.666 -21.333 -45.999 -34s-29 -26.834 -41 -42.501s-21.833 -33 -29.5 -52s-11.5 -39.833 -11.5 -62.5c0 -67.333 19.5 -120.166 58.5 -158.499s97.833 -57.5 176.5 -57.5
c25.333 0 47.666 2.33301 66.999 7s36.333 10.5 51 17.5s27.334 14.333 38.001 22s20 14.834 28 21.501l52 -62h165zM366 548.997c0 -12.667 -4 -23.834 -12 -33.501s-17.667 -18.5 -29 -26.5l-11 -7.5l-19 -12.5c-12.667 14.667 -23.667 28.334 -33 41.001
s-14 25.667 -14 39c0 16.667 5 30.5 15 41.5s24.667 16.5 44 16.5c18.667 0 33.167 -5.5 43.5 -16.5s15.5 -24.833 15.5 -41.5zM400 153.997c-16.667 -14.667 -33.166 -25.333 -49.499 -32s-35.166 -10 -56.499 -10c-15.333 0 -29.5 2.5 -42.5 7.5s-24.333 11.833 -34 20.5
s-17.334 19.167 -23.001 31.5s-8.5 25.833 -8.5 40.5c0 25.333 6.66699 46 20 62s30.666 31.667 51.999 47z" />
    <glyph glyph-name="quotesingle" unicode="'" horiz-adv-x="259" 
d="M191 501v211h-123v-211h123z" />
    <glyph glyph-name="parenleft" unicode="(" horiz-adv-x="336" 
d="M281 -7l-30.5 31.498c-8.33301 9 -16.833 20.833 -25.5 35.5c-10 18 -15 46 -15 84v424c0 38 5 66 15 84c8.66699 14.667 17.167 26.5 25.5 35.5l30.5 31.5l-87 87l-48 -49.5c-15.333 -16.333 -28.666 -34.166 -39.999 -53.499c-11.333 -20 -18.5 -41 -21.5 -63
s-4.5 -44 -4.5 -66v-436c0 -22 1.5 -44 4.5 -66s10.167 -43 21.5 -63c11.333 -19.333 24.666 -37.166 39.999 -53.499l48 -49.5z" />
    <glyph glyph-name="parenright" unicode=")" horiz-adv-x="336" 
d="M256 138v436.004c0 22 -1.5 44 -4.5 66s-10.167 43 -21.5 63c-11.333 19.333 -24.666 37.166 -39.999 53.499l-48 49.5l-88 -88l30.5 -31c8.33301 -8.66699 16.833 -20.334 25.5 -35.001c10 -18 15 -46 15 -84v-424c0 -38 -5 -66 -15 -84
c-8.66699 -14.667 -17.167 -26.334 -25.5 -35.001l-30.5 -31l88 -88l48 49.5c15.333 16.333 28.666 34.166 39.999 53.499c11.333 20 18.5 41 21.5 63s4.5 44 4.5 66z" />
    <glyph glyph-name="asterisk" unicode="*" horiz-adv-x="494" 
d="M440 460l-111 58l111 58l-46 80l-105 -67l4 125h-92l5 -125l-106 67l-45 -80l110 -58l-110 -58l45 -79l106 66l-5 -125h92l-4 125l105 -66z" />
    <glyph glyph-name="plus" unicode="+" 
d="M493 216v122h-160v160h-122v-160h-161v-122h161v-160h122v160h160z" />
    <glyph glyph-name="comma" unicode="," horiz-adv-x="279" 
d="M211 -55v197h-143v-307z" />
    <glyph glyph-name="hyphen" unicode="-" horiz-adv-x="426" 
d="M367 225v121h-308v-121h308z" />
    <glyph glyph-name="period" unicode="." horiz-adv-x="285" 
d="M217 0v148h-149v-148h149z" />
    <glyph glyph-name="slash" unicode="/" horiz-adv-x="403" 
d="M407 786h-122l-285 -860h122z" />
    <glyph glyph-name="zero" unicode="0" 
d="M488 206v300c0 34 -5.83301 64.167 -17.5 90.5s-27.334 48.5 -47.001 66.5s-42.667 31.667 -69 41s-53.833 14 -82.5 14c-29.333 0 -57 -4.66699 -83 -14s-49 -23 -69 -41s-35.833 -40.167 -47.5 -66.5s-17.5 -56.5 -17.5 -90.5v-300c0 -34 5.83301 -64.167 17.5 -90.5
s27.5 -48.5 47.5 -66.5s43 -31.667 69 -41s53.667 -14 83 -14c28.667 0 56.167 4.66699 82.5 14s49.333 23 69 41s35.334 40.167 47.001 66.5s17.5 56.5 17.5 90.5zM358 207c0 -30 -8 -53.5 -24 -70.5s-36.667 -25.5 -62 -25.5s-46.166 8.5 -62.499 25.5
s-24.5 40.5 -24.5 70.5v297c0 30 8.16699 53.667 24.5 71s37.166 26 62.499 26s46 -8.66699 62 -26s24 -41 24 -71v-297z" />
    <glyph glyph-name="one" unicode="1" 
d="M378 0v712h-130l-145 -126v-140l145 126v-572h130z" />
    <glyph glyph-name="two" unicode="2" 
d="M492 0l0.00195312 116.999h-275l199 231l32.5 39.5c9.66699 12.333 17.667 24.833 24 37.5s11.166 25.834 14.499 39.501s5 29.167 5 46.5c0 32 -5.33301 60.833 -16 86.5s-25.5 47.334 -44.5 65.001s-41.833 31.334 -68.5 41.001s-55.667 14.5 -87 14.5
c-30.667 0 -59.167 -4.66699 -85.5 -14s-49.333 -23 -69 -41s-35 -39.833 -46 -65.5s-16.5 -54.834 -16.5 -87.501h130c0 17.333 2.5 31.833 7.5 43.5s11.667 21 20 28s17.666 12 27.999 15s20.833 4.5 31.5 4.5c28 0 49.333 -8.16699 64 -24.5s22 -37.833 22 -64.5
c0 -16.667 -2.83301 -31.334 -8.5 -44.001s-15.167 -26.667 -28.5 -42l-266 -309v-117h433z" />
    <glyph glyph-name="three" unicode="3" 
d="M495 206c0 43.333 -8.99707 77.8271 -26.9971 103.494s-39.667 45.167 -65 58.5c23.333 12.667 42.833 30.5 58.5 53.5s23.5 53.833 23.5 92.5c0 30 -5.33301 57.5 -16 82.5s-25.667 46.5 -45 64.5s-42.333 32 -69 42s-55.667 15 -87 15
c-30 0 -58.167 -4.66699 -84.5 -14s-49.166 -22.666 -68.499 -39.999s-34.833 -38.5 -46.5 -63.5s-17.834 -53.5 -18.501 -85.5h130c1.33301 27.333 10.166 48.5 26.499 63.5s36.833 22.5 61.5 22.5c23.333 0 43.666 -7.66699 60.999 -23s26 -38 26 -68
c0 -25.333 -7 -46.5 -21 -63.5s-37 -25.5 -69 -25.5h-19v-113h19c32 0 56.667 -8.83301 74 -26.5s26 -41.5 26 -71.5c0 -32 -9 -56.5 -27 -73.5s-41 -25.5 -69 -25.5c-12.667 0 -24.834 1.83301 -36.501 5.5s-21.834 9.33398 -30.501 17.001s-15.667 17.334 -21 29.001
s-8.33301 25.5 -9 41.5h-130c0.666992 -37.333 7.33398 -69.166 20.001 -95.499s29.5 -48 50.5 -65s45 -29.5 72 -37.5s55.167 -12 84.5 -12c30.667 0 59.667 4.33301 87 13s51.333 21.834 72 39.501s37 39.834 49 66.501s18 57.667 18 93z" />
    <glyph glyph-name="four" unicode="4" 
d="M512 101v123h-65v133h-125v-133h-149l244 488h-142l-244 -488v-123h291v-101h125v101h65z" />
    <glyph glyph-name="five" unicode="5" 
d="M494 240c0 34 -3.66699 67.1631 -11 99.4961s-25 62.5 -53 90.5c-14.667 14.667 -33 26.334 -55 35.001s-48 13 -78 13c-24 0 -45.5 -3.66699 -64.5 -11s-33.167 -15.666 -42.5 -24.999v153h288v117h-406v-402h119c4.66699 14 13.5 27.167 26.5 39.5
s32.833 18.5 59.5 18.5c32 0 54.5 -11 67.5 -33s19.5 -53.667 19.5 -95c0 -22.667 -1.83301 -43.167 -5.5 -61.5s-11.167 -33.166 -22.5 -44.499c-15.333 -15.333 -36 -23 -62 -23c-27.333 0 -47.833 7.66699 -61.5 23s-22.167 37 -25.5 65h-130
c2 -26 6.66699 -51.667 14 -77s22 -49 44 -71c15.333 -15.333 36.333 -28.666 63 -39.999s58.667 -17 96 -17s68.833 5.66699 94.5 17s46.5 25 62.5 41c26 26 43 53.833 51 83.5s12 64.5 12 104.5z" />
    <glyph glyph-name="six" unicode="6" 
d="M492 216c0 32.667 -5.16699 62.1689 -15.5 88.502s-24.333 48.5 -42 66.5s-37.667 31.833 -60 41.5s-45.5 14.5 -69.5 14.5c-8.66699 0 -17.5 -0.666992 -26.5 -2s-17.833 -3.66602 -26.5 -6.99902l148 294h-142l-150 -308c-16 -32.667 -30 -64.334 -42 -95.001
s-18 -62.334 -18 -95.001c0 -35.333 5.66699 -66.666 17 -93.999s27 -50.333 47 -69s43.5 -32.834 70.5 -42.501s56.167 -14.5 87.5 -14.5s60.5 5 87.5 15s50.5 24.5 70.5 43.5s35.667 42.167 47 69.5s17 58.666 17 93.999zM362 215.002c0 -33.333 -8.66699 -59 -26 -77
s-39.333 -27 -66 -27s-48.667 9 -66 27s-26 43.667 -26 77s8.66699 59 26 77s39.333 27 66 27c28 0 50.333 -9.33301 67 -28s25 -44 25 -76z" />
    <glyph glyph-name="seven" unicode="7" 
d="M503 595v117h-453v-229h124v112h188l-231 -595h141z" />
    <glyph glyph-name="eight" unicode="8" 
d="M500 207c0 22 -2.83398 41.333 -8.50098 58s-13 31.5 -22 44.5s-18.667 24.167 -29 33.5s-20.5 17.333 -30.5 24c8.66699 6 17.834 13.667 27.501 23s18.334 20 26.001 32s14 25.667 19 41s7.5 32.666 7.5 51.999c0 31.333 -5.83301 59.5 -17.5 84.5
s-27.334 46.333 -47.001 64s-42.667 31.167 -69 40.5s-54.5 14 -84.5 14s-58.167 -4.66699 -84.5 -14s-49.5 -22.833 -69.5 -40.5s-35.833 -39 -47.5 -64s-17.5 -53.167 -17.5 -84.5c0 -19.333 2.5 -36.666 7.5 -51.999s11.333 -29 19 -41s16.167 -22.667 25.5 -32
s18.666 -17 27.999 -23c-10 -6.66699 -20.167 -14.667 -30.5 -24s-19.833 -20.5 -28.5 -33.5s-15.834 -27.833 -21.501 -44.5s-8.5 -36 -8.5 -58c0 -34.667 6 -65.167 18 -91.5s28.333 -48.5 49 -66.5s44.834 -31.667 72.501 -41s57.167 -14 88.5 -14
s60.833 4.66699 88.5 14s51.834 23 72.501 41s37 40.167 49 66.5s18 56.833 18 91.5zM359.999 511c0 -26 -8.33301 -47.5 -25 -64.5s-37.667 -25.5 -63 -25.5s-46.5 8.5 -63.5 25.5s-25.5 38.5 -25.5 64.5c0 25.333 8.5 46.666 25.5 63.999s38.167 26 63.5 26
s46.333 -8.66699 63 -26s25 -38.666 25 -63.999zM369.999 209c0 -28 -9.33301 -51.333 -28 -70s-42 -28 -70 -28s-51.333 9.33301 -70 28s-28 42 -28 70s9.33301 51.5 28 70.5s42 28.5 70 28.5s51.333 -9.5 70 -28.5s28 -42.5 28 -70.5z" />
    <glyph glyph-name="nine" unicode="9" 
d="M495 498c0 35.333 -5.66699 66.666 -17 93.999s-27 50.333 -47 69s-43.5 32.834 -70.5 42.501s-56.167 14.5 -87.5 14.5s-60.5 -5 -87.5 -15s-50.5 -24.5 -70.5 -43.5s-35.667 -42.333 -47 -70s-17 -58.834 -17 -93.501c0 -33.333 5.33301 -63 16 -89s24.667 -48 42 -66
s37.333 -31.833 60 -41.5s46 -14.5 70 -14.5c8.66699 0 17.5 0.666992 26.5 2s17.833 3.66602 26.5 6.99902l-148 -294h141l151 308c16 32.667 29.833 64.334 41.5 95.001s17.5 62.334 17.5 95.001zM365 497c0 -33.333 -8.66699 -59 -26 -77s-39.333 -27 -66 -27
c-28 0 -50.333 9.33301 -67 28s-25 44 -25 76c0 33.333 8.66699 59 26 77s39.333 27 66 27s48.667 -9 66 -27s26 -43.667 26 -77z" />
    <glyph glyph-name="colon" unicode=":" horiz-adv-x="309" 
d="M241 271v148h-148v-148h148zM241 0v148h-148v-148h148z" />
    <glyph glyph-name="semicolon" unicode=";" horiz-adv-x="309" 
d="M241 271v148h-148v-148h148zM238 -55v197h-142v-307z" />
    <glyph glyph-name="less" unicode="&#x3c;" horiz-adv-x="1027" 
d="M976 224v123h-703l326 323h-164l-385 -385l385 -385h164l-326 324h703z" />
    <glyph glyph-name="equal" unicode="=" 
d="M493 333v122h-443v-122h443zM493 116v122h-443v-122h443z" />
    <glyph glyph-name="greater" unicode="&#x3e;" horiz-adv-x="1027" 
d="M977 285l-385 385h-164l326 -323h-704v-123h704l-326 -324h164z" />
    <glyph glyph-name="question" unicode="?" horiz-adv-x="523" 
d="M487 518c0 32 -5.66699 60.3291 -17 84.9961s-26.666 45.5 -45.999 62.5s-41.833 30 -67.5 39s-52.5 13.5 -80.5 13.5c-29.333 0 -56.666 -4.66699 -81.999 -14s-47.5 -22.5 -66.5 -39.5s-34 -38 -45 -63s-16.5 -52.833 -16.5 -83.5h130c0 23.333 6.66699 43 20 59
s33.333 24 60 24c25.333 0 45.166 -7.83301 59.499 -23.5s21.5 -35.167 21.5 -58.5c0 -11.333 -2.83301 -22.666 -8.5 -33.999s-12.5 -22.333 -20.5 -33l-74 -95c-13.333 -17.333 -23 -33.666 -29 -48.999s-9 -33.666 -9 -54.999v-30h130v21c0 8.66699 1.66699 17.667 5 27
s7.66602 17.333 12.999 24l74 98c14 18.667 25.667 37.834 35 57.501s14 42.167 14 67.5zM350 -0.00390625v133h-138v-133h138z" />
    <glyph glyph-name="at" unicode="@" horiz-adv-x="758" 
d="M700 -3l0.00195312 469.002c0 41.333 -4.33301 77.333 -13 108s-24.667 57.667 -48 81s-50.666 39.333 -81.999 48s-66.666 13 -105.999 13h-144c-40.667 0 -76.334 -4.33301 -107.001 -13s-57.667 -24.667 -81 -48s-39.5 -50.5 -48.5 -81.5s-13.5 -66.833 -13.5 -107.5
v-299c0 -22.667 1.5 -42.5 4.5 -59.5s7.66699 -32.5 14 -46.5s14.5 -27 24.5 -39s22 -24.333 36 -37l90 90c-8 7.33301 -14.833 14.166 -20.5 20.499s-10.334 13.333 -14.001 21s-6.16699 16 -7.5 25s-2 19.833 -2 32.5v289c0 21.333 2.16699 40 6.5 56
s13.833 31.333 28.5 46c14 14 29.167 23.333 45.5 28s34.5 7 54.5 7h124c20 0 38.333 -2.5 55 -7.5s31.667 -14.167 45 -27.5s22.5 -28.333 27.5 -45s7.5 -35.667 7.5 -57v-45c-15.333 16.667 -32.5 29 -51.5 37s-41.167 12 -66.5 12c-26 0 -49.833 -4.5 -71.5 -13.5
s-39.834 -21.5 -54.501 -37.5c-20 -22 -32.667 -47.167 -38 -75.5s-8 -64.833 -8 -109.5c0 -22.667 0.5 -43 1.5 -61s3.16699 -34.5 6.5 -49.5s8.16602 -28.833 14.499 -41.5s14.5 -24.334 24.5 -35.001c31.333 -33.333 73.333 -50 126 -50c28 0 51 4.33301 69 13
s35 21.667 51 39v-46zM576.002 231.002c0 -40 -5.83301 -71.5 -17.5 -94.5s-33.5 -34.5 -65.5 -34.5s-53.667 11.5 -65 34.5s-17 54.5 -17 94.5s5.66699 71.333 17 94s33 34 65 34s53.833 -11.333 65.5 -34s17.5 -54 17.5 -94z" />
    <glyph glyph-name="A" unicode="A" horiz-adv-x="638" 
d="M633 0l-260 712h-109l-259 -712h145l43 126h253l42 -126h145zM409 243h-177l90 259z" />
    <glyph glyph-name="B" unicode="B" horiz-adv-x="658" 
d="M599 205c0 24 -3.16699 44.835 -9.5 62.502s-14.166 32.834 -23.499 45.501s-19.833 23.167 -31.5 31.5s-22.834 15.166 -33.501 20.499c8.66699 4 18.167 10.333 28.5 19s20 19.167 29 31.5s16.333 26.5 22 42.5s8.5 34 8.5 54c0 61.333 -19.167 110 -57.5 146
s-92.5 54 -162.5 54h-286v-712h298c32 0 61.333 4.5 88 13.5s49.667 22.167 69 39.5s34.333 38.666 45 63.999s16 54.666 16 87.999zM450 506.002c0 -24.667 -7.83301 -44.5 -23.5 -59.5s-38.5 -22.5 -68.5 -22.5h-136v164h136c30 0 52.833 -7.5 68.5 -22.5
s23.5 -34.833 23.5 -59.5zM460 212.002c0 -24 -7.5 -44.667 -22.5 -62s-38.5 -26 -70.5 -26h-145v175h145c32 0 55.5 -8.5 70.5 -25.5s22.5 -37.5 22.5 -61.5z" />
    <glyph glyph-name="C" unicode="C" horiz-adv-x="620" 
d="M583 219l-141 -0.00390625c-7.33301 -28.667 -20.333 -52.667 -39 -72s-45.667 -29 -81 -29c-19.333 0 -36.5 3.33301 -51.5 10s-27.5 15.667 -37.5 27c-6.66699 7.33301 -12.334 15.5 -17.001 24.5s-8.33398 20.833 -11.001 35.5s-4.5 33.334 -5.5 56.001
s-1.5 51 -1.5 85s0.5 62.333 1.5 85s2.83301 41.334 5.5 56.001s6.33398 26.5 11.001 35.5s10.334 17.167 17.001 24.5c10 11.333 22.5 20.333 37.5 27s32.167 10 51.5 10c35.333 0 62.333 -9.66699 81 -29s31.667 -43.333 39 -72h141c-6 37.333 -16.833 70 -32.5 98
s-35 51.5 -58 70.5s-49 33.167 -78 42.5s-60.167 14 -93.5 14c-39.333 0 -74.833 -6.66699 -106.5 -20s-60.167 -32.666 -85.5 -57.999c-18 -18 -31.833 -37.167 -41.5 -57.5s-16.5 -42.166 -20.5 -65.499s-6.33301 -48.333 -7 -75s-1 -55.334 -1 -86.001
s0.333008 -59.334 1 -86.001s3 -51.667 7 -75s10.833 -45.166 20.5 -65.499s23.5 -39.5 41.5 -57.5c25.333 -25.333 53.833 -44.666 85.5 -57.999s67.167 -20 106.5 -20c32.667 0 63.667 4.66699 93 14s55.5 23.5 78.5 42.5s42.333 42.5 58 70.5s26.5 60.667 32.5 98z" />
    <glyph glyph-name="D" unicode="D" horiz-adv-x="659" 
d="M600 359v77.999c0 26 -2 51 -6 75s-11 47 -21 69s-25 43 -45 63c-23.333 23.333 -51.166 40.5 -83.499 51.5s-67.166 16.5 -104.499 16.5h-257v-712h257c37.333 0 72.166 5.5 104.499 16.5s60.166 28.167 83.499 51.5c20 20 35 41.333 45 64s17 46.334 21 71.001
s6 50 6 76v80zM461 358.999c0 -54 -1.83203 -95.3311 -5.49902 -123.998s-11.834 -51 -24.501 -67c-12 -14.667 -26.333 -25.667 -43 -33s-37 -11 -61 -11h-105v464h105c24 0 44.333 -3.66699 61 -11s31 -18.333 43 -33c6.66699 -8 12 -17 16 -27s7 -22.333 9 -37
s3.33301 -31.834 4 -51.501s1 -42.834 1 -69.501z" />
    <glyph glyph-name="E" unicode="E" horiz-adv-x="605" 
d="M552 0v124h-330v173h281v124h-281v167h330v124h-469v-712h469z" />
    <glyph glyph-name="F" unicode="F" horiz-adv-x="590" 
d="M552 588v124h-469v-712h139v289h281v124h-281v175h330z" />
    <glyph glyph-name="G" unicode="G" horiz-adv-x="648" 
d="M590 292l-0.00292969 103.998h-269v-116h131v-27c0 -18.667 -2.5 -35.834 -7.5 -51.501s-13.167 -30.167 -24.5 -43.5c-11.333 -12.667 -25.333 -22.5 -42 -29.5s-35.667 -10.5 -57 -10.5c-19.333 0 -36.5 3.33301 -51.5 10s-27.5 15.667 -37.5 27
c-6.66699 7.33301 -12.167 15.5 -16.5 24.5s-7.83301 20.833 -10.5 35.5s-4.5 33.334 -5.5 56.001s-1.5 51 -1.5 85s0.5 62.167 1.5 84.5s2.83301 40.833 5.5 55.5s6.16699 26.5 10.5 35.5s9.83301 17.167 16.5 24.5c10 11.333 22.5 20.5 37.5 27.5s32.167 10.5 51.5 10.5
c36 0 64.333 -8.83301 85 -26.5s35 -43.5 43 -77.5h140c-4.66699 30 -13.5 58.667 -26.5 86s-30.5 51.5 -52.5 72.5s-48.667 37.833 -80 50.5s-67.666 19 -108.999 19c-40 0 -75.667 -6.66699 -107 -20s-59.666 -32.666 -84.999 -57.999
c-18 -18 -31.833 -37.167 -41.5 -57.5s-16.5 -42.166 -20.5 -65.499s-6.33301 -48.333 -7 -75s-1 -55.334 -1 -86.001s0.333008 -59.334 1 -86.001s3 -51.667 7 -75s10.833 -45.166 20.5 -65.499s23.5 -39.5 41.5 -57.5c25.333 -25.333 53.833 -44.666 85.5 -57.999
s67.167 -20 106.5 -20c38 0 73.833 6 107.5 18s64.834 33 93.501 63c24.667 26 42.167 55.833 52.5 89.5s15.5 76.167 15.5 127.5z" />
    <glyph glyph-name="H" unicode="H" horiz-adv-x="685" 
d="M602 0v712h-139v-291h-241v291h-139v-712h139v298h241v-298h139z" />
    <glyph glyph-name="I" unicode="I" horiz-adv-x="305" 
d="M222 0v712h-139v-712h139z" />
    <glyph glyph-name="J" unicode="J" horiz-adv-x="511" 
d="M437 234l0.000976562 478h-139v-472c0 -41.333 -10.167 -72 -30.5 -92s-47.5 -30 -81.5 -30c-23.333 0 -41.5 3.83301 -54.5 11.5s-25.167 17.167 -36.5 28.5l-92 -91c26.667 -26.667 54.167 -45.5 82.5 -56.5s61.833 -16.5 100.5 -16.5
c32.667 0 64.167 5.16699 94.5 15.5s57.166 25.5 80.499 45.5s41.833 45 55.5 75s20.5 64.667 20.5 104z" />
    <glyph glyph-name="K" unicode="K" horiz-adv-x="665" 
d="M659 0l-253 429l236 283h-169l-251 -310v310h-139v-712h139v214l92 110l183 -324h162z" />
    <glyph glyph-name="L" unicode="L" horiz-adv-x="575" 
d="M545 0v124h-323v588h-139v-712h462z" />
    <glyph glyph-name="M" unicode="M" horiz-adv-x="811" 
d="M728 0v712h-137l-185 -385l-186 385h-137v-712h139v415l137 -270h94l136 270v-415h139z" />
    <glyph glyph-name="N" unicode="N" horiz-adv-x="711" 
d="M628 0v712h-139v-436l-282 436h-124v-712h139v437l282 -437h124z" />
    <glyph glyph-name="O" unicode="O" horiz-adv-x="644" 
d="M585 356c0 30.667 -0.333008 59.334 -1 86.001s-3.16699 51.667 -7.5 75s-11.333 45.166 -21 65.499s-23.5 39.5 -41.5 57.5c-25.333 25.333 -53.5 44.666 -84.5 57.999s-66.833 20 -107.5 20s-76.667 -6.66699 -108 -20s-59.666 -32.666 -84.999 -57.999
c-18 -18 -31.833 -37.167 -41.5 -57.5s-16.5 -42.166 -20.5 -65.499s-6.33301 -48.333 -7 -75s-1 -55.334 -1 -86.001s0.333008 -59.334 1 -86.001s3 -51.667 7 -75s10.833 -45.166 20.5 -65.499s23.5 -39.5 41.5 -57.5c25.333 -25.333 53.666 -44.666 84.999 -57.999
s67.333 -20 108 -20s76.5 6.66699 107.5 20s59.167 32.666 84.5 57.999c18 18 31.833 37.167 41.5 57.5s16.667 42.166 21 65.499s6.83301 48.333 7.5 75s1 55.334 1 86.001zM446 356c0 -34 -0.5 -62.167 -1.5 -84.5s-2.83301 -40.833 -5.5 -55.5
s-6.33398 -26.5 -11.001 -35.5s-10.334 -17.167 -17.001 -24.5c-10 -11.333 -22.5 -20.5 -37.5 -27.5s-32.167 -10.5 -51.5 -10.5s-36.666 3.5 -51.999 10.5s-28 16.167 -38 27.5c-6.66699 7.33301 -12.167 15.5 -16.5 24.5s-7.83301 20.833 -10.5 35.5
s-4.5 33.167 -5.5 55.5s-1.5 50.5 -1.5 84.5s0.5 62.167 1.5 84.5s2.83301 40.833 5.5 55.5s6.16699 26.5 10.5 35.5s9.83301 17.167 16.5 24.5c10 11.333 22.667 20.5 38 27.5s32.666 10.5 51.999 10.5s36.5 -3.5 51.5 -10.5s27.5 -16.167 37.5 -27.5
c6.66699 -7.33301 12.334 -15.5 17.001 -24.5s8.33398 -20.833 11.001 -35.5s4.5 -33.167 5.5 -55.5s1.5 -50.5 1.5 -84.5z" />
    <glyph glyph-name="P" unicode="P" horiz-adv-x="628" 
d="M594 490c0 30 -5.33301 58.5 -16 85.5s-26.167 50.667 -46.5 71s-45 36.333 -74 48s-61.833 17.5 -98.5 17.5h-276v-712h139v268h137c36.667 0 69.5 5.83301 98.5 17.5s53.667 27.667 74 48s35.833 44 46.5 71s16 55.5 16 85.5zM455 490
c0 -29.333 -9.16699 -52.833 -27.5 -70.5s-43.5 -26.5 -75.5 -26.5h-130v195h130c32 0 57.167 -9 75.5 -27s27.5 -41.667 27.5 -71z" />
    <glyph glyph-name="Q" unicode="Q" horiz-adv-x="643" 
d="M602 43l-61 60.999c11.333 16.667 20 34.167 26 52.5s10.333 37.833 13 58.5s4.16699 42.667 4.5 66s0.5 48.333 0.5 75c0 30.667 -0.333008 59.334 -1 86.001s-3.16699 51.667 -7.5 75s-11.333 45.166 -21 65.499s-23.5 39.5 -41.5 57.5
c-25.333 25.333 -53.5 44.666 -84.5 57.999s-66.833 20 -107.5 20s-76.667 -6.66699 -108 -20s-59.666 -32.666 -84.999 -57.999c-18 -18 -31.833 -37.167 -41.5 -57.5s-16.5 -42.166 -20.5 -65.499s-6.33301 -48.333 -7 -75s-1 -55.334 -1 -86.001
s0.333008 -59.334 1 -86.001s3 -51.667 7 -75s10.833 -45.166 20.5 -65.499s23.5 -39.5 41.5 -57.5c25.333 -25.333 53.666 -44.666 84.999 -57.999s67.333 -20 108 -20c56 0 104 13 144 39l63 -63zM446 355.999c0 -36 -0.834961 -65.168 -2.50195 -87.501
s-5.16699 -41.166 -10.5 -56.499l-53 53l-74 -73l62 -61c-12.667 -8.66699 -28 -13 -46 -13c-19.333 0 -36.666 3.5 -51.999 10.5s-28 16.167 -38 27.5c-6.66699 7.33301 -12.167 15.5 -16.5 24.5s-7.83301 20.833 -10.5 35.5s-4.5 33.167 -5.5 55.5s-1.5 50.5 -1.5 84.5
s0.5 62.167 1.5 84.5s2.83301 40.833 5.5 55.5s6.16699 26.5 10.5 35.5s9.83301 17.167 16.5 24.5c10 11.333 22.667 20.5 38 27.5s32.666 10.5 51.999 10.5s36.5 -3.5 51.5 -10.5s27.5 -16.167 37.5 -27.5c6.66699 -7.33301 12.334 -15.5 17.001 -24.5
s8.33398 -20.833 11.001 -35.5s4.5 -33.167 5.5 -55.5s1.5 -50.5 1.5 -84.5z" />
    <glyph glyph-name="R" unicode="R" horiz-adv-x="654" 
d="M622 0l-159 306.999c17.333 6 33.833 14.5 49.5 25.5s29.5 24.333 41.5 40s21.5 33.5 28.5 53.5s10.5 42.667 10.5 68c0 30 -5.16699 58.167 -15.5 84.5s-25.5 49.333 -45.5 69s-44.333 35.334 -73 47.001s-61 17.5 -97 17.5h-279v-712h139v284h100l139 -284h161z
M454 493.999c0 -28 -9.16699 -50.667 -27.5 -68s-42.833 -26 -73.5 -26h-131v188h131c30.667 0 55.167 -8.66699 73.5 -26s27.5 -40 27.5 -68z" />
    <glyph glyph-name="S" unicode="S" horiz-adv-x="591" 
d="M543 210c0 32 -4.33789 60.667 -13.0049 86s-22.667 47 -42 65c-15.333 14 -33.666 25.5 -54.999 34.5s-48.333 15.833 -81 20.5l-84 12c-14.667 2 -27.5 5.5 -38.5 10.5s-20.167 10.833 -27.5 17.5c-7.33301 7.33301 -12.666 15.333 -15.999 24s-5 17.667 -5 27
c0 24.667 9 45.834 27 63.501s45.667 26.5 83 26.5c23.333 0 47.833 -2.83301 73.5 -8.5s49.834 -19.167 72.501 -40.5l88 87c-30.667 30 -64.334 51.333 -101.001 64s-79.667 19 -129 19c-38.667 0 -73.334 -5.33301 -104.001 -16s-56.667 -25.5 -78 -44.5
s-37.666 -41.667 -48.999 -68s-17 -55.5 -17 -87.5c0 -59.333 17 -106 51 -140c31.333 -30.667 77.333 -50.334 138 -59.001l86 -12c16.667 -2.66699 29.5 -5.83398 38.5 -9.50098s17.167 -8.83398 24.5 -15.501c14.667 -14 22 -34 22 -60
c0 -28.667 -10.667 -50.5 -32 -65.5s-52.666 -22.5 -93.999 -22.5c-33.333 0 -64.666 4.33301 -93.999 13s-55.333 24.334 -78 47.001l-90 -90c34.667 -35.333 73.167 -59.833 115.5 -73.5s90.5 -20.5 144.5 -20.5c37.333 0 72 4.83301 104 14.5s59.833 23.667 83.5 42
s42.334 40.833 56.001 67.5s20.5 57.334 20.5 92.001z" />
    <glyph glyph-name="T" unicode="T" horiz-adv-x="571" 
d="M541 588v124h-511v-124h186v-588h139v588h186z" />
    <glyph glyph-name="U" unicode="U" horiz-adv-x="668" 
d="M596 244l-0.00585938 468h-138v-463c0 -41.333 -11.167 -73.5 -33.5 -96.5s-52.5 -34.5 -90.5 -34.5s-68 11.5 -90 34.5s-33 55.167 -33 96.5v463h-139v-468c0 -38 6.83301 -72.333 20.5 -103s32.334 -56.834 56.001 -78.501s51.334 -38.5 83.001 -50.5
s65.834 -18 102.501 -18s70.834 6 102.501 18s59.334 28.833 83.001 50.5s42.334 47.834 56.001 78.501s20.5 65 20.5 103z" />
    <glyph glyph-name="V" unicode="V" horiz-adv-x="581" 
d="M578 712h-145l-143 -464l-143 464h-144l235 -712h104z" />
    <glyph glyph-name="W" unicode="W" horiz-adv-x="887" 
d="M881 712h-145l-111 -449l-130 449h-104l-130 -449l-110 449h-145l190 -712h116l131 432l131 -432h116z" />
    <glyph glyph-name="X" unicode="X" horiz-adv-x="603" 
d="M598 0l-222 365l207 347h-157l-125 -230l-124 230h-158l207 -347l-221 -365h159l137 248l138 -248h159z" />
    <glyph glyph-name="Y" unicode="Y" horiz-adv-x="572" 
d="M569 712h-151l-131 -287l-133 287h-151l214 -420v-292h138v292z" />
    <glyph glyph-name="Z" unicode="Z" horiz-adv-x="548" 
d="M508 0v124h-305l305 478v110h-455v-124h291l-304 -476v-112h468z" />
    <glyph glyph-name="bracketleft" unicode="[" horiz-adv-x="378" 
d="M337 -74v117h-127v626h127v117h-257v-860h257z" />
    <glyph glyph-name="backslash" unicode="\" horiz-adv-x="403" 
d="M403 -74l-281 847h-122l281 -847h122z" />
    <glyph glyph-name="bracketright" unicode="]" horiz-adv-x="378" 
d="M299 -74v860h-257v-116h127v-628h-127v-116h257z" />
    <glyph glyph-name="asciicircum" unicode="^" horiz-adv-x="602" 
d="M539 389l-178 330h-120l-178 -330h136l102 188l102 -188h136z" />
    <glyph glyph-name="underscore" unicode="_" horiz-adv-x="602" 
d="M602 -178v87h-602v-87h602z" />
    <glyph glyph-name="grave" unicode="`" horiz-adv-x="500" 
d="M305 604l-64 170h-137l114 -170h87z" />
    <glyph glyph-name="a" unicode="a" horiz-adv-x="534" 
d="M467 0l-0.00488281 343.001c0 61.333 -18.667 107.333 -56 138s-92.666 46 -165.999 46c-43.333 0 -79.166 -5 -107.499 -15s-55.166 -29 -80.499 -57l83 -81c6.66699 8 13.334 14.667 20.001 20s13.834 9.66602 21.501 12.999s16.167 5.83301 25.5 7.5
s20.333 2.5 33 2.5c34.667 0 59.5 -6.5 74.5 -19.5s22.5 -33.833 22.5 -62.5v-26h-123c-30 0 -56.167 -4 -78.5 -12s-40.833 -18.833 -55.5 -32.5s-25.667 -29.667 -33 -48s-11 -37.833 -11 -58.5c0 -23.333 3.66699 -45 11 -65s18 -37.333 32 -52
c30.667 -30.667 75 -46 133 -46c30 0 54.5 4 73.5 12s37.167 20.667 54.5 38v-45h127zM336.995 192.001c0 -32 -6.33398 -54 -19.001 -66c-11.333 -11.333 -23.333 -18.333 -36 -21s-28 -4 -46 -4c-25.333 0 -44.166 5.5 -56.499 16.5s-18.5 25.5 -18.5 43.5
c0 18.667 6.33301 33.167 19 43.5s30.667 15.5 54 15.5h103v-28z" />
    <glyph glyph-name="b" unicode="b" horiz-adv-x="560" 
d="M509 261c0 19.333 -0.333008 39.1689 -1 59.502s-2.66699 40.166 -6 59.499s-8.66602 37.5 -15.999 54.5s-17.333 32.167 -30 45.5c-14.667 14.667 -33.167 26.167 -55.5 34.5s-46.166 12.5 -71.499 12.5c-26.667 0 -50 -3.83301 -70 -11.5s-38.667 -21.167 -56 -40.5
v237h-130v-712h126v49c18 -20 37.167 -34.167 57.5 -42.5s44.5 -12.5 72.5 -12.5c25.333 0 49.166 4.16699 71.499 12.5s40.833 19.833 55.5 34.5c12.667 12.667 22.667 27.667 30 45s12.666 35.666 15.999 54.999s5.33301 39.333 6 60s1 40.667 1 60zM379 261.003
c0 -21.333 -1 -41.166 -3 -59.499s-6 -34.166 -12 -47.499s-14.833 -23.833 -26.5 -31.5s-27.167 -11.5 -46.5 -11.5s-34.833 3.83301 -46.5 11.5s-20.5 18.167 -26.5 31.5s-10 29.166 -12 47.499s-3 38.166 -3 59.499s1 41 3 59s6 33.667 12 47s14.833 23.833 26.5 31.5
s27.167 11.5 46.5 11.5s34.833 -3.83301 46.5 -11.5s20.5 -18.167 26.5 -31.5s10 -29 12 -47s3 -37.667 3 -59z" />
    <glyph glyph-name="c" unicode="c" horiz-adv-x="480" 
d="M452 65l-88 86.999c-13.333 -14.667 -26.333 -25.167 -39 -31.5s-27.667 -9.5 -45 -9.5c-30.667 0 -55.334 11.333 -74.001 34c-19.333 24 -29 62.667 -29 116c0 28 2.33301 51 7 69s12 33.333 22 46c18.667 22.667 43.334 34 74.001 34
c17.333 0 32.333 -3.16699 45 -9.5s25.667 -16.833 39 -31.5l88 88c-23.333 24 -48.833 41.667 -76.5 53s-59.5 17 -95.5 17c-26 0 -52.833 -4 -80.5 -12s-52.667 -22 -75 -42s-40.833 -47.167 -55.5 -81.5s-22 -77.833 -22 -130.5s7.33301 -96.167 22 -130.5
s33.167 -61.666 55.5 -81.999s47.333 -34.5 75 -42.5s54.5 -12 80.5 -12c36 0 67.833 5.83301 95.5 17.5s53.167 29.5 76.5 53.5z" />
    <glyph glyph-name="d" unicode="d" horiz-adv-x="561" 
d="M488 0l-0.00292969 711.997h-130v-237c-17.333 19.333 -36.166 32.833 -56.499 40.5s-43.833 11.5 -70.5 11.5c-25.333 0 -49.166 -4.16699 -71.499 -12.5s-40.833 -19.833 -55.5 -34.5c-13.333 -13.333 -23.5 -28.5 -30.5 -45.5s-12.167 -35.167 -15.5 -54.5
s-5.33301 -39.166 -6 -59.499s-1 -40.166 -1 -59.499s0.333008 -39.333 1 -60s2.66699 -40.667 6 -60s8.5 -37.666 15.5 -54.999s17.167 -32.333 30.5 -45c14.667 -14.667 33.334 -26.167 56.001 -34.5s46.667 -12.5 72 -12.5c28 0 52 4.16699 72 12.5s39 22.5 57 42.5v-49
h127zM357.997 260.997c0 -21.333 -1 -41.166 -3 -59.499s-6.16699 -34.166 -12.5 -47.499s-15.333 -23.833 -27 -31.5s-27.167 -11.5 -46.5 -11.5s-34.833 3.83301 -46.5 11.5s-20.5 18.167 -26.5 31.5s-10 29.166 -12 47.499s-3 38.166 -3 59.499s1 41 3 59s6 33.667 12 47
s14.833 23.833 26.5 31.5s27.167 11.5 46.5 11.5s34.833 -3.83301 46.5 -11.5s20.667 -18.167 27 -31.5s10.5 -29 12.5 -47s3 -37.667 3 -59z" />
    <glyph glyph-name="e" unicode="e" horiz-adv-x="548" 
d="M501 220l0.00195312 58c0 36 -5 69.167 -15 99.5s-24.667 56.5 -44 78.5s-43.166 39.333 -71.499 52s-60.5 19 -96.5 19c-34 0 -64.833 -5.83301 -92.5 -17.5s-51.5 -28.834 -71.5 -51.501s-35.5 -50.5 -46.5 -83.5s-16.5 -70.833 -16.5 -113.5
c0 -52.667 6.83301 -96.167 20.5 -130.5s31.667 -61.666 54 -81.999s48 -34.5 77 -42.5s58.833 -12 89.5 -12c23.333 0 44.333 1.83301 63 5.5s35.834 9 51.501 16s30.167 15.5 43.5 25.5s26.666 21.667 39.999 35l-79 77c-16.667 -16.667 -33.334 -29 -50.001 -37
s-39.334 -12 -68.001 -12c-36.667 0 -64.834 10.833 -84.501 32.5s-29.5 49.5 -29.5 83.5h326zM373.002 309h-198c0.666992 11.333 1.83398 21.166 3.50098 29.499s4.5 17.166 8.5 26.499c7.33301 15.333 18.166 28.166 32.499 38.499s32.5 15.5 54.5 15.5
s40.167 -5.16699 54.5 -15.5s25.166 -23.166 32.499 -38.499c4 -9.33301 6.83301 -18.166 8.5 -26.499s2.83398 -18.166 3.50098 -29.499z" />
    <glyph glyph-name="f" unicode="f" horiz-adv-x="342" 
d="M315 407v99.001h-96v57c0 31.333 15 47 45 47h51v110h-74c-26.667 0 -49.5 -4.33301 -68.5 -13s-34.667 -20 -47 -34s-21.5 -29.833 -27.5 -47.5s-9 -35.834 -9 -54.501v-65h-54v-99h54v-407h130v407h96z" />
    <glyph glyph-name="g" unicode="g" horiz-adv-x="555" 
d="M482 19l0.00195312 502.003h-126v-49c-18 20 -36.667 34.167 -56 42.5s-43 12.5 -71 12.5c-25.333 0 -48.833 -4 -70.5 -12s-39.834 -19.333 -54.501 -34c-12 -12 -21.667 -25.333 -29 -40s-12.666 -30.5 -15.999 -47.5s-5.5 -35.333 -6.5 -55s-1.5 -40.834 -1.5 -63.501
s0.5 -44 1.5 -64s3.16699 -38.5 6.5 -55.5s8.66602 -32.833 15.999 -47.5s17 -28 29 -40c14.667 -14.667 32.667 -26 54 -34s44.666 -12 69.999 -12s48 3.83301 68 11.5s38.667 21.167 56 40.5v-53c0 -13.333 -1.83301 -26.5 -5.5 -39.5s-9.66699 -24.5 -18 -34.5
s-19.166 -18.167 -32.499 -24.5s-29.666 -9.5 -48.999 -9.5c-22 0 -40.833 3.16699 -56.5 9.5s-30.834 16.5 -45.501 30.5l-81 -82c27.333 -26 55.666 -43.833 84.999 -53.5s64 -14.5 104 -14.5c34.667 0 66.167 5.33301 94.5 16s52.5 25.667 72.5 45
s35.333 42.166 46 68.499s16 55.166 16 86.499zM352.002 275.003c0 -17.333 -0.833008 -34.166 -2.5 -50.499s-5.5 -30.833 -11.5 -43.5s-14.667 -22.834 -26 -30.501s-26.666 -11.5 -45.999 -11.5s-34.666 3.83301 -45.999 11.5s-19.833 17.834 -25.5 30.501
s-9.33398 27.167 -11.001 43.5s-2.5 33.166 -2.5 50.499s0.833008 34.166 2.5 50.499s5.33398 30.666 11.001 42.999s14.167 22.333 25.5 30s26.666 11.5 45.999 11.5s34.666 -3.83301 45.999 -11.5s20 -17.667 26 -30s9.83301 -26.666 11.5 -42.999
s2.5 -33.166 2.5 -50.499z" />
    <glyph glyph-name="h" unicode="h" horiz-adv-x="569" 
d="M502 0v337.001c0 27.333 -3.66699 52.666 -11 75.999s-18.333 43.5 -33 60.5s-32.834 30.167 -54.501 39.5s-46.834 14 -75.501 14c-23.333 0 -45.666 -4.5 -66.999 -13.5s-40.666 -22.5 -57.999 -40.5v239h-130v-712h130v318c0 16.667 2.5 31 7.5 43
s11.5 21.5 19.5 28.5s17 12.167 27 15.5s20 5 30 5s20.167 -1.5 30.5 -4.5s19.5 -8.16699 27.5 -15.5s14.5 -16.833 19.5 -28.5s7.5 -26.167 7.5 -43.5v-318h130z" />
    <glyph glyph-name="i" unicode="i" horiz-adv-x="275" 
d="M204 610v106h-133v-106h133zM203 0v521h-130v-521h130z" />
    <glyph glyph-name="j" unicode="j" horiz-adv-x="275" 
d="M204 610v106h-133v-106h133zM203 -46l0.000976562 566.999h-130v-559c0 -15.333 -3.5 -27 -10.5 -35s-18.833 -12 -35.5 -12h-50v-110h74c26.667 0 49.667 4.33301 69 13s35.166 20 47.499 34s21.333 29.833 27 47.5s8.5 35.834 8.5 54.501z" />
    <glyph glyph-name="k" unicode="k" horiz-adv-x="559" 
d="M547 0l-200 311l186 210h-157l-173 -213v404h-130v-712h130v155l55 62l128 -217h161z" />
    <glyph glyph-name="l" unicode="l" horiz-adv-x="325" 
d="M294 0l0.000976562 110.001h-50c-16.667 0 -28.5 4 -35.5 12s-10.5 19.667 -10.5 35v555h-130v-563c0 -18.667 2.83301 -36.834 8.5 -54.501s14.667 -33.5 27 -47.5s28.166 -25.333 47.499 -34s42.333 -13 69 -13h74z" />
    <glyph glyph-name="m" unicode="m" horiz-adv-x="876" 
d="M809 0l0.00585938 332.997c0 28.667 -4.16699 55.167 -12.5 79.5s-23.166 47.166 -44.499 68.499c-14.667 14.667 -33.167 26 -55.5 34s-46.5 12 -72.5 12c-32.667 0 -61.334 -5.16699 -86.001 -15.5s-48 -27.166 -70 -50.499c-16.667 22.667 -36.5 39.334 -59.5 50.001
s-49.167 16 -78.5 16c-24 0 -47.333 -4.66699 -70 -14s-42.667 -22.666 -60 -39.999v48h-127v-521h130v315c0 18 2.66699 33 8 45s12.166 21.667 20.499 29s17.666 12.666 27.999 15.999s20.5 5 30.5 5s20.167 -1.66699 30.5 -5s19.666 -8.66602 27.999 -15.999
s15 -17 20 -29s7.5 -27 7.5 -45v-315h130v318c0 16.667 2.66699 31 8 43s12.166 21.5 20.499 28.5s17.666 12.167 27.999 15.5s20.5 5 30.5 5s20.167 -1.66699 30.5 -5s19.666 -8.66602 27.999 -15.999s15 -17 20 -29s7.5 -27 7.5 -45v-315h130z" />
    <glyph glyph-name="n" unicode="n" horiz-adv-x="573" 
d="M506 0l0.00390625 333.001c0 28.667 -3.5 55.167 -10.5 79.5s-21.167 47.166 -42.5 68.499c-14.667 14.667 -32.334 26 -53.001 34s-44 12 -70 12c-24 0 -47.333 -4.5 -70 -13.5s-42.667 -22.5 -60 -40.5v48h-127v-521h130v315c0 18 2.66699 33 8 45
s12.166 21.667 20.499 29s17.666 12.666 27.999 15.999s20.5 5 30.5 5s20.167 -1.66699 30.5 -5s19.666 -8.66602 27.999 -15.999s15 -17 20 -29s7.5 -27 7.5 -45v-315h130z" />
    <glyph glyph-name="o" unicode="o" 
d="M492 261c0 47.333 -4 86.666 -12 117.999s-23.667 59.333 -47 84c-16 17.333 -37.333 32.333 -64 45s-59.334 19 -98.001 19s-71.167 -6.33301 -97.5 -19s-47.5 -27.667 -63.5 -45c-23.333 -24.667 -39 -52.667 -47 -84s-12 -70.666 -12 -117.999s4 -86.833 12 -118.5
s23.667 -59.834 47 -84.501c16 -17.333 37.167 -32.333 63.5 -45s58.833 -19 97.5 -19s71.334 6.33301 98.001 19s48 27.667 64 45c23.333 24.667 39 52.834 47 84.501s12 71.167 12 118.5zM362 261c0 -27.333 -1.66699 -52 -5 -74s-11.666 -39.667 -24.999 -53
c-15.333 -15.333 -35.666 -23 -60.999 -23c-24.667 0 -44.667 7.66699 -60 23c-13.333 13.333 -21.666 31 -24.999 53s-5 46.667 -5 74s1.66699 51.833 5 73.5s11.666 39.167 24.999 52.5c15.333 15.333 35.333 23 60 23c25.333 0 45.666 -7.66699 60.999 -23
c13.333 -13.333 21.666 -30.833 24.999 -52.5s5 -46.167 5 -73.5z" />
    <glyph glyph-name="p" unicode="p" horiz-adv-x="560" 
d="M509 261c0 19.333 -0.333008 39.1689 -1 59.502s-2.66699 40.166 -6 59.499s-8.66602 37.5 -15.999 54.5s-17.333 32.167 -30 45.5c-14.667 14.667 -33.167 26.167 -55.5 34.5s-46.166 12.5 -71.499 12.5c-28 0 -52.167 -4.16699 -72.5 -12.5s-39.5 -22.5 -57.5 -42.5v49
h-126v-712h130v237c17.333 -19.333 36 -32.833 56 -40.5s43.333 -11.5 70 -11.5c25.333 0 49.166 4.16699 71.499 12.5s40.833 19.833 55.5 34.5c12.667 12.667 22.667 27.667 30 45s12.666 35.666 15.999 54.999s5.33301 39.333 6 60s1 40.667 1 60zM379 261.003
c0 -21.333 -1 -41.166 -3 -59.499s-6 -34.166 -12 -47.499s-14.833 -23.833 -26.5 -31.5s-27.167 -11.5 -46.5 -11.5s-34.833 3.83301 -46.5 11.5s-20.5 18.167 -26.5 31.5s-10 29.166 -12 47.499s-3 38.166 -3 59.499s1 41 3 59s6 33.667 12 47s14.833 23.833 26.5 31.5
s27.167 11.5 46.5 11.5s34.833 -3.83301 46.5 -11.5s20.5 -18.167 26.5 -31.5s10 -29 12 -47s3 -37.667 3 -59z" />
    <glyph glyph-name="q" unicode="q" horiz-adv-x="561" 
d="M488 -191l0.00292969 711.997h-127v-49c-18 20 -37 34.167 -57 42.5s-44 12.5 -72 12.5c-25.333 0 -49.333 -4.16699 -72 -12.5s-41.334 -19.833 -56.001 -34.5c-13.333 -13.333 -23.5 -28.5 -30.5 -45.5s-12.167 -35.167 -15.5 -54.5s-5.33301 -39.166 -6 -59.499
s-1 -40.166 -1 -59.499s0.333008 -39.333 1 -60s2.66699 -40.667 6 -60s8.5 -37.666 15.5 -54.999s17.167 -32.333 30.5 -45c14.667 -14.667 33.167 -26.167 55.5 -34.5s46.166 -12.5 71.499 -12.5c26.667 0 50.167 3.83301 70.5 11.5s39.166 21.167 56.499 40.5v-237h130z
M358.003 260.997c0 -21.333 -1 -41.166 -3 -59.499s-6.16699 -34.166 -12.5 -47.499s-15.333 -23.833 -27 -31.5s-27.167 -11.5 -46.5 -11.5s-34.833 3.83301 -46.5 11.5s-20.5 18.167 -26.5 31.5s-10 29.166 -12 47.499s-3 38.166 -3 59.499s1 41 3 59s6 33.667 12 47
s14.833 23.833 26.5 31.5s27.167 11.5 46.5 11.5s34.833 -3.83301 46.5 -11.5s20.667 -18.167 27 -31.5s10.5 -29 12.5 -47s3 -37.667 3 -59z" />
    <glyph glyph-name="r" unicode="r" horiz-adv-x="455" 
d="M454 478c-18 18 -36.668 30.667 -56.001 38s-41.666 11 -66.999 11c-28 0 -53.667 -5.5 -77 -16.5s-41.333 -24.167 -54 -39.5v50h-127v-521h130v314c0 16.667 2.5 31 7.5 43s11.5 22 19.5 30s17 13.833 27 17.5s20 5.5 30 5.5c16 0 29 -2.66699 39 -8s20 -13 30 -23z
" />
    <glyph glyph-name="s" unicode="s" horiz-adv-x="501" 
d="M465 164c0 44 -12.834 79.1689 -38.501 105.502s-64.5 42.166 -116.5 47.499l-82 8c-11.333 0.666992 -20.5 2.66699 -27.5 6s-12.5 7 -16.5 11s-6.66699 8.5 -8 13.5s-2 9.83301 -2 14.5c0 13.333 5.83301 25 17.5 35s30.5 15 56.5 15c22.667 0 44.667 -2.5 66 -7.5
s39.666 -14.167 54.999 -27.5l80 81c-25.333 23.333 -54.666 39.333 -87.999 48s-70.333 13 -111 13c-26.667 0 -52.167 -3.66699 -76.5 -11s-45.666 -18 -63.999 -32s-33 -31.333 -44 -52s-16.5 -44.334 -16.5 -71.001c0 -48 13.5 -83.167 40.5 -105.5
s64.167 -35.833 111.5 -40.5l82 -8c20.667 -2 35 -7.16699 43 -15.5s12 -19.166 12 -32.499c0 -10 -2.66699 -18.333 -8 -25s-12.333 -12.167 -21 -16.5s-18.5 -7.5 -29.5 -9.5s-22.167 -3 -33.5 -3c-20 0 -42.833 2.83301 -68.5 8.5s-49.167 19.167 -70.5 40.5l-85 -85
c16.667 -16.667 33.667 -29.834 51 -39.501s35.333 -17.167 54 -22.5s37.667 -8.83301 57 -10.5s39.333 -2.5 60 -2.5c30.667 0 59.5 3.5 86.5 10.5s50.5 17.5 70.5 31.5s35.667 31.667 47 53s17 46.333 17 75z" />
    <glyph glyph-name="t" unicode="t" horiz-adv-x="352" 
d="M307 0v110.001h-47c-30 0 -45 15.667 -45 47v250h92v99h-92v154h-130v-154h-55v-99h55v-258c0 -18.667 2.83301 -36.834 8.5 -54.501s14.667 -33.5 27 -47.5s28 -25.333 47 -34s41.833 -13 68.5 -13h71z" />
    <glyph glyph-name="u" unicode="u" horiz-adv-x="573" 
d="M500 0l-0.00390625 520.999h-130v-315c0 -18 -2.66699 -33 -8 -45s-12.166 -21.667 -20.499 -29s-17.666 -12.666 -27.999 -15.999s-20.5 -5 -30.5 -5s-20.167 1.66699 -30.5 5s-19.666 8.66602 -27.999 15.999s-15 17 -20 29s-7.5 27 -7.5 45v315h-130v-333
c0 -28.667 3.5 -55.167 10.5 -79.5s21.167 -47.166 42.5 -68.499c14.667 -14.667 32.334 -26 53.001 -34s44 -12 70 -12c24 0 47.333 4.5 70 13.5s42.667 22.5 60 40.5v-48h127z" />
    <glyph glyph-name="v" unicode="v" horiz-adv-x="493" 
d="M489 521h-137l-105 -322l-106 322h-137l192 -521h102z" />
    <glyph glyph-name="w" unicode="w" horiz-adv-x="759" 
d="M755 521h-137l-84 -322l-107 322h-95l-106 -322l-84 322h-138l160 -521h107l109 327l109 -327h107z" />
    <glyph glyph-name="x" unicode="x" horiz-adv-x="527" 
d="M515 0l-180 266l173 255h-156l-89 -149l-88 149h-156l173 -255l-180 -266h156l95 156l96 -156h156z" />
    <glyph glyph-name="y" unicode="y" horiz-adv-x="494" 
d="M490 521h-137l-104 -322l-108 322h-137l178 -484l-22 -64c-6.66699 -19.333 -14.5 -32 -23.5 -38s-22.833 -9 -41.5 -9h-30v-117h51c21.333 0 41.5 2.83301 60.5 8.5s36.167 16.167 51.5 31.5c14.667 14.667 27.667 37 39 67z" />
    <glyph glyph-name="z" unicode="z" horiz-adv-x="478" 
d="M434 0v117h-234l234 305v99h-384v-117h218l-231 -305v-99h397z" />
    <glyph glyph-name="braceleft" unicode="{" horiz-adv-x="457" 
d="M414 -74v117h-53c-15.333 0 -27.333 1 -36 3s-15.667 5.66699 -21 11c-5.33301 6 -9.33301 13.833 -12 23.5s-4 23.167 -4 40.5v135c0 18 -2.33301 32.833 -7 44.5s-10.5 21.167 -17.5 28.5s-14.5 13 -22.5 17s-15.333 7.33301 -22 10c6.66699 2.66699 14 6 22 10
s15.5 9.66699 22.5 17s12.833 16.833 17.5 28.5s7 26.5 7 44.5v135c0 17.333 1.33301 30.833 4 40.5s6.66699 17.5 12 23.5c5.33301 5.33301 12.333 9 21 11s20.667 3 36 3h53v117h-102c-26 0 -48.167 -3.16699 -66.5 -9.5s-33.5 -15.5 -45.5 -27.5
c-28 -28 -42 -65 -42 -111v-145c0 -28.667 -5.66699 -48.667 -17 -60c-5.33301 -5.33301 -12.333 -9.83301 -21 -13.5s-19 -5.5 -31 -5.5h-46v-116h46c12 0 22.333 -1.83301 31 -5.5s15.667 -8.16699 21 -13.5c11.333 -11.333 17 -31.333 17 -60v-145c0 -46 14 -83 42 -111
c12 -12 27.167 -21.167 45.5 -27.5s40.5 -9.5 66.5 -9.5h102z" />
    <glyph glyph-name="bar" unicode="|" horiz-adv-x="350" 
d="M240 -74v860h-130v-860h130z" />
    <glyph glyph-name="braceright" unicode="}" horiz-adv-x="457" 
d="M414 298v116h-46c-12 0 -22.333 1.83301 -31 5.5s-15.667 8.16699 -21 13.5c-11.333 11.333 -17 31.333 -17 60v145c0 46 -14 83 -42 111c-12 12 -27.167 21.167 -45.5 27.5s-40.5 9.5 -66.5 9.5h-102v-117h53c15.333 0 27.333 -1 36 -3s15.667 -5.66699 21 -11
c5.33301 -6 9.33301 -13.833 12 -23.5s4 -23.167 4 -40.5v-135c0 -18 2.33301 -32.833 7 -44.5s10.5 -21.167 17.5 -28.5s14.5 -13 22.5 -17s15.333 -7.33301 22 -10c-6.66699 -2.66699 -14 -6 -22 -10s-15.5 -9.66699 -22.5 -17s-12.833 -16.833 -17.5 -28.5
s-7 -26.5 -7 -44.5v-135c0 -17.333 -1.33301 -30.833 -4 -40.5s-6.66699 -17.5 -12 -23.5c-5.33301 -5.33301 -12.333 -9 -21 -11s-20.667 -3 -36 -3h-53v-117h102c26 0 48.167 3.16699 66.5 9.5s33.5 15.5 45.5 27.5c28 28 42 65 42 111v145c0 28.667 5.66699 48.667 17 60
c5.33301 5.33301 12.333 9.83301 21 13.5s19 5.5 31 5.5h46z" />
    <glyph glyph-name="asciitilde" unicode="~" horiz-adv-x="606" 
d="M569 281l-83.002 82c-18.667 -18.667 -34.5 -30.334 -47.5 -35.001s-26.167 -7 -39.5 -7c-14.667 0 -28.167 2.16699 -40.5 6.5s-25.833 10.166 -40.5 17.499c-21.333 11.333 -41 19.833 -59 25.5s-37.333 8.5 -58 8.5c-15.333 0 -29.5 -1.5 -42.5 -4.5s-26 -8 -39 -15
s-26.167 -16 -39.5 -27s-27.666 -24.167 -42.999 -39.5l82 -82c18.667 18.667 34.334 30.334 47.001 35.001s25.667 7 39 7c14.667 0 28.334 -2.16699 41.001 -6.5s26.334 -10.166 41.001 -17.499c21.333 -11.333 41 -19.833 59 -25.5s37.333 -8.5 58 -8.5
c15.333 0 29.666 1.5 42.999 4.5s26.5 8 39.5 15s26.167 16 39.5 27s27.666 24.167 42.999 39.5z" />
    <glyph glyph-name="exclamdown" unicode="&#xa1;" horiz-adv-x="347" 
d="M224 388v133h-137v-133h137zM236 -191l-32 489h-97l-32 -489h161z" />
    <glyph glyph-name="cent" unicode="&#xa2;" horiz-adv-x="499" 
d="M469 180l-86 84.002c-10 -10.667 -19.833 -19.334 -29.5 -26.001s-21.167 -11.667 -34.5 -15v286c13.333 -3.33301 24.833 -8.33301 34.5 -15s19.5 -15.334 29.5 -26.001l86 84c-19.333 20 -39.833 36.167 -61.5 48.5s-46.5 21.166 -74.5 26.499v85h-101v-85
c-26 -5.33301 -50.333 -14.666 -73 -27.999s-42.334 -30.833 -59.001 -52.5s-29.667 -47.5 -39 -77.5s-14 -64.333 -14 -103s4.66699 -73 14 -103s22.333 -55.833 39 -77.5s36.334 -39.167 59.001 -52.5s47 -22.666 73 -27.999v-105h101v105
c28 5.33301 52.833 14.166 74.5 26.499s42.167 28.5 61.5 48.5zM246 225.002c-15.333 4 -28 12.667 -38 26c-10 12.667 -17.667 28 -23 46s-8 41 -8 69s2.66699 51 8 69s13 33.333 23 46c11.333 13.333 24 22 38 26v-282z" />
    <glyph glyph-name="sterling" unicode="&#xa3;" horiz-adv-x="579" 
d="M534 0v124h-295v173h113v100h-113v75c0 41.333 10.333 72 31 92s48 30 82 30c23.333 0 41.5 -3.83301 54.5 -11.5s25.167 -17.167 36.5 -28.5l91 91c-26.667 26.667 -54 45.5 -82 56.5s-61.333 16.5 -100 16.5c-33.333 0 -65 -5.16699 -95 -15.5s-56.667 -25.5 -80 -45.5
s-41.833 -45 -55.5 -75s-20.5 -64.667 -20.5 -104v-81h-61v-100h61v-297h433z" />
    <glyph glyph-name="currency" unicode="&#xa4;" horiz-adv-x="669" 
d="M610 96l-73 73c10 17.333 17.833 35.833 23.5 55.5s8.5 40.167 8.5 61.5s-2.83301 41.833 -8.5 61.5s-13.5 38.167 -23.5 55.5l73 73l-85 86l-74 -73c-17.333 10 -35.833 17.833 -55.5 23.5s-40.167 8.5 -61.5 8.5s-41.666 -2.83301 -60.999 -8.5
s-37.666 -13.5 -54.999 -23.5l-74 73l-86 -86l74 -73c-10 -17.333 -18 -35.833 -24 -55.5s-9 -40.167 -9 -61.5s3 -41.833 9 -61.5s14 -38.167 24 -55.5l-74 -73l86 -86l74 73c17.333 -10 35.666 -17.833 54.999 -23.5s39.666 -8.5 60.999 -8.5s41.833 2.83301 61.5 8.5
s38.167 13.5 55.5 23.5l74 -73zM452 286c0 -16 -3.16699 -31.167 -9.5 -45.5s-14.833 -26.833 -25.5 -37.5s-23.167 -19 -37.5 -25s-29.5 -9 -45.5 -9s-31.167 3 -45.5 9s-26.833 14.333 -37.5 25s-19 23.167 -25 37.5s-9 29.5 -9 45.5s3 31.167 9 45.5
s14.333 26.833 25 37.5s23.167 19 37.5 25s29.5 9 45.5 9s31.167 -3 45.5 -9s26.833 -14.333 37.5 -25s19.167 -23.167 25.5 -37.5s9.5 -29.5 9.5 -45.5z" />
    <glyph glyph-name="yen" unicode="&#xa5;" horiz-adv-x="571" 
d="M568 712h-150l-132 -288l-132 288h-151l137 -270h-75v-100h126l26 -50v-51h-152v-100h152v-141h138v141h151v100h-151v51l26 50h125v100h-74z" />
    <glyph glyph-name="brokenbar" unicode="&#xa6;" horiz-adv-x="353" 
d="M240 436v350h-130v-350h130zM240 -74v350h-130v-350h130z" />
    <glyph glyph-name="section" unicode="&#xa7;" horiz-adv-x="531" 
d="M473 274c0 52.667 -12.3359 93.333 -37.0029 122s-61 50.667 -109 66l-62 20c-44.667 14.667 -67 36.667 -67 66c0 17.333 5.83301 31.5 17.5 42.5s29.167 16.5 52.5 16.5c19.333 0 35.5 -4.66699 48.5 -14s20.167 -25 21.5 -47h122c0 24 -4 46.5 -12 67.5
s-19.833 39.167 -35.5 54.5s-35.5 27.5 -59.5 36.5s-52.333 13.5 -85 13.5s-61 -4.83301 -85 -14.5s-44 -22.5 -60 -38.5s-27.833 -34.333 -35.5 -55s-11.5 -42.334 -11.5 -65.001c0 -36.667 7.33301 -64.834 22 -84.501s32.667 -35.167 54 -46.5
c-10 -5.33301 -20.333 -12.666 -31 -21.999s-20.5 -20.333 -29.5 -33s-16.333 -26.834 -22 -42.501s-8.5 -32.834 -8.5 -51.501c0 -26.667 3.16699 -49.834 9.5 -69.501s15.5 -37 27.5 -52s27.167 -27.833 45.5 -38.5s39.5 -20 63.5 -28l62 -21
c27.333 -9.33301 45.833 -20.666 55.5 -33.999s14.5 -26.666 14.5 -39.999c0 -19.333 -6.33301 -34.833 -19 -46.5s-30.667 -17.5 -54 -17.5c-22.667 0 -40.334 5.83301 -53.001 17.5s-19.667 26.834 -21 45.501h-125c0.666992 -32 6.83398 -59.167 18.501 -81.5
s26.834 -40.666 45.501 -54.999s39.834 -24.833 63.501 -31.5s47.5 -10 71.5 -10c24.667 0 48.834 3.83301 72.501 11.5s44.834 19 63.501 34s33.667 34 45 57s17 49.833 17 80.5c0 38.667 -8 68.667 -24 90s-35 37.666 -57 48.999
c9.33301 5.33301 19.166 12.666 29.499 21.999s20 20.333 29 33s16.5 26.834 22.5 42.501s9 32.834 9 51.501zM347.997 268.999c0 -18 -2.66602 -32.167 -7.99902 -42.5s-11 -18.5 -17 -24.5s-13.667 -11 -23 -15s-20.333 -6 -33 -6s-23.834 2 -33.501 6s-17.5 9 -23.5 15
s-11.5 14.167 -16.5 24.5s-7.5 24.5 -7.5 42.5c0 17.333 2.16699 31.166 6.5 41.499s10.166 19.166 17.499 26.499c6 6 13.833 11 23.5 15s20.834 6 33.501 6s23.5 -2 32.5 -6s16.833 -9 23.5 -15c7.33301 -7.33301 13.333 -16.166 18 -26.499s7 -24.166 7 -41.499z" />
    <glyph glyph-name="dieresis" unicode="&#xa8;" horiz-adv-x="500" 
d="M416 606v125h-111v-125h111zM195 606v125h-111v-125h111z" />
    <glyph glyph-name="copyright" unicode="&#xa9;" horiz-adv-x="844" 
d="M784 356c0 50 -9.5 97 -28.5 141s-44.833 82.333 -77.5 115s-71 58.5 -115 77.5s-91 28.5 -141 28.5s-97 -9.5 -141 -28.5s-82.333 -44.833 -115 -77.5s-58.5 -71 -77.5 -115s-28.5 -91 -28.5 -141s9.5 -97 28.5 -141s44.833 -82.333 77.5 -115s71 -58.5 115 -77.5
s91 -28.5 141 -28.5s97 9.5 141 28.5s82.333 44.833 115 77.5s58.5 71 77.5 115s28.5 91 28.5 141zM697 356c0 -40 -7 -77.167 -21 -111.5s-33.333 -64 -58 -89s-53.834 -44.667 -87.501 -59s-69.834 -21.5 -108.501 -21.5s-74.834 7.16699 -108.501 21.5
s-62.834 34 -87.501 59s-44.167 54.667 -58.5 89s-21.5 71.5 -21.5 111.5s7.16699 77.167 21.5 111.5s33.833 64 58.5 89s53.834 44.667 87.501 59s69.834 21.5 108.501 21.5s74.834 -7.16699 108.501 -21.5s62.834 -34 87.501 -59s44 -54.667 58 -89s21 -71.5 21 -111.5z
M561 212l-56.002 55.998c-13.333 -11.333 -25.5 -19.5 -36.5 -24.5s-24.167 -7.5 -39.5 -7.5c-32 0 -55.667 10.833 -71 32.5s-23 50.834 -23 87.501s7.66699 65.834 23 87.501s39 32.5 71 32.5c15.333 0 28.5 -2.5 39.5 -7.5s23.167 -13.167 36.5 -24.5l56 56
c-19.333 16.667 -39.166 29.667 -59.499 39s-44.5 14 -72.5 14c-25.333 0 -48.833 -4.33301 -70.5 -13s-40.5 -21.167 -56.5 -37.5s-28.667 -36.833 -38 -61.5s-14 -53 -14 -85s4.66699 -60.167 14 -84.5s22 -44.833 38 -61.5s34.833 -29.167 56.5 -37.5
s45.167 -12.5 70.5 -12.5c28 0 52.333 4.5 73 13.5s40.334 21.833 59.001 38.5z" />
    <glyph glyph-name="ordfeminine" unicode="&#xaa;" horiz-adv-x="454" 
d="M392 296l0.00390625 274c0 48.667 -14.833 85.334 -44.5 110.001s-73.834 37 -132.501 37c-34.667 0 -63.334 -4 -86.001 -12s-44.334 -23.333 -65.001 -46l67 -65c11.333 12.667 22.5 21.5 33.5 26.5s26.167 7.5 45.5 7.5c28 0 47.833 -5.16699 59.5 -15.5
s17.5 -26.833 17.5 -49.5v-20h-97c-24 0 -45 -3.16699 -63 -9.5s-32.833 -15 -44.5 -26s-20.334 -23.833 -26.001 -38.5s-8.5 -30.334 -8.5 -47.001c0 -38 11.667 -68.667 35 -92c24 -25.333 59 -38 105 -38c24 0 43.333 3.16699 58 9.5s29 16.5 43 30.5v-36h103z
M287.004 449c0 -24.667 -5.00098 -41.667 -15.001 -51c-8.66699 -8 -18 -13.167 -28 -15.5s-22.333 -3.5 -37 -3.5c-19.333 0 -33.666 4.16699 -42.999 12.5s-14 19.5 -14 33.5s4.66699 25.333 14 34s23.333 13 42 13h81v-23z" />
    <glyph glyph-name="guillemotleft" unicode="&#xab;" horiz-adv-x="628" 
d="M562 27v155l-96 93l96 93v155l-250 -248zM283 27v155l-94 93l94 93v155l-249 -248z" />
    <glyph glyph-name="logicalnot" unicode="&#xac;" 
d="M497 94v266h-451v-121h330v-145h121z" />
    <glyph glyph-name="minus" unicode="&#xad;" 
d="M493 225v121h-443v-121h443z" />
    <glyph glyph-name="registered" unicode="&#xae;" horiz-adv-x="844" 
d="M784 356c0 50 -9.5 97 -28.5 141s-44.833 82.333 -77.5 115s-71 58.5 -115 77.5s-91 28.5 -141 28.5s-97 -9.5 -141 -28.5s-82.333 -44.833 -115 -77.5s-58.5 -71 -77.5 -115s-28.5 -91 -28.5 -141s9.5 -97 28.5 -141s44.833 -82.333 77.5 -115s71 -58.5 115 -77.5
s91 -28.5 141 -28.5s97 9.5 141 28.5s82.333 44.833 115 77.5s58.5 71 77.5 115s28.5 91 28.5 141zM698 356c0 -40 -7 -77.167 -21 -111.5s-33.5 -64 -58.5 -89s-54.333 -44.667 -88 -59s-69.834 -21.5 -108.501 -21.5c-39.333 0 -75.666 7.16699 -108.999 21.5
s-62.5 34 -87.5 59s-44.5 54.667 -58.5 89s-21 71.5 -21 111.5s7 77.167 21 111.5s33.5 64 58.5 89s54.167 44.667 87.5 59s69.666 21.5 108.999 21.5c38.667 0 74.834 -7.16699 108.501 -21.5s63 -34 88 -59s44.5 -54.667 58.5 -89s21 -71.5 21 -111.5zM585 164l-81 162
c18.667 7.33301 35.167 19.5 49.5 36.5s21.5 38.833 21.5 65.5c0 16 -3 31.333 -9 46s-14.5 27.5 -25.5 38.5s-24.5 19.833 -40.5 26.5s-33.667 10 -53 10h-157v-385h86v149h41l70 -149h98zM489 428c0 -13.333 -4.83301 -25 -14.5 -35s-22.5 -15 -38.5 -15h-60v100h60
c16 0 28.833 -5 38.5 -15s14.5 -21.667 14.5 -35z" />
    <glyph glyph-name="macron" unicode="&#xaf;" horiz-adv-x="500" 
d="M408 630v87h-316v-87h316z" />
    <glyph glyph-name="degree" unicode="&#xb0;" horiz-adv-x="478" 
d="M423 542c0 25.333 -4.83301 49.333 -14.5 72s-22.834 42.334 -39.501 59.001s-36.167 29.834 -58.5 39.501s-46.166 14.5 -71.499 14.5s-49.166 -4.83301 -71.499 -14.5s-41.833 -22.834 -58.5 -39.501s-29.834 -36.334 -39.501 -59.001s-14.5 -46.667 -14.5 -72
s4.83301 -49.166 14.5 -71.499s22.834 -41.833 39.501 -58.5s36.167 -29.834 58.5 -39.501s46.166 -14.5 71.499 -14.5s49.166 4.83301 71.499 14.5s41.833 22.834 58.5 39.501s29.834 36.167 39.501 58.5s14.5 46.166 14.5 71.499zM318 542
c0 -22.667 -7.66699 -41.667 -23 -57s-34 -23 -56 -23s-40.667 7.66699 -56 23s-23 34.333 -23 57s7.5 41.667 22.5 57s33.5 23 55.5 23s40.833 -7.66699 56.5 -23s23.5 -34.333 23.5 -57z" />
    <glyph glyph-name="plusminus" unicode="&#xb1;" 
d="M493 341v121h-160v161h-122v-161h-161v-121h161v-161h122v161h160zM493 0v122h-443v-122h443z" />
    <glyph glyph-name="twosuperior" unicode="&#xb2;" horiz-adv-x="358" 
d="M315 285l0.00195312 85.001h-157l105 114c16.667 18 29.5 34.333 38.5 49s13.5 33 13.5 55c0 40 -12.833 71.333 -38.5 94s-58.167 34 -97.5 34c-18.667 0 -36.334 -2.83301 -53.001 -8.5s-31.167 -14 -43.5 -25s-22 -24.5 -29 -40.5s-10.5 -34.333 -10.5 -55h94
c0 17.333 4.5 29 13.5 35s18.5 9 28.5 9c13.333 0 23.666 -3.83301 30.999 -11.5s11 -18.167 11 -31.5c0 -9.33301 -1.66699 -17.333 -5 -24s-9 -14.334 -17 -23.001l-156 -171v-85h272z" />
    <glyph glyph-name="threesuperior" unicode="&#xb3;" horiz-adv-x="368" 
d="M325 412c0 25.333 -5.16309 45.334 -15.4961 60.001s-21.833 26 -34.5 34c11.333 7.33301 21.666 17.333 30.999 30s14 30.667 14 54c0 18.667 -3.5 35.667 -10.5 51s-16.5 28.5 -28.5 39.5s-26.333 19.667 -43 26s-34.667 9.5 -54 9.5
c-18.667 0 -36.334 -2.83301 -53.001 -8.5s-31.167 -14 -43.5 -25s-22 -24.333 -29 -40s-10.5 -33.5 -10.5 -53.5h94c0 13.333 4.16699 23.666 12.5 30.999s18.166 11 29.499 11s21.166 -3.66699 29.499 -11s12.5 -18.333 12.5 -33c0 -10.667 -3.5 -20.5 -10.5 -29.5
s-18.167 -13.5 -33.5 -13.5h-13v-81h13c15.333 0 27.333 -4.5 36 -13.5s13 -20.5 13 -34.5c0 -16 -4.33301 -28.333 -13 -37s-20 -13 -34 -13c-13.333 0 -24.5 4 -33.5 12s-13.5 20 -13.5 36h-94c0 -23.333 4 -43.333 12 -60s18.667 -30.334 32 -41.001
s28.333 -18.5 45 -23.5s34 -7.5 52 -7.5c18.667 0 36.5 2.66699 53.5 8s32 13.333 45 24s23.333 24.334 31 41.001s11.5 36 11.5 58z" />
    <glyph glyph-name="acute" unicode="&#xb4;" horiz-adv-x="500" 
d="M396 774h-137l-64 -170h87z" />
    <glyph glyph-name="mu" unicode="&#xb5;" horiz-adv-x="576" 
d="M503 0l-0.00292969 521h-130v-315c0 -18 -2.66699 -33 -8 -45s-12.166 -21.667 -20.499 -29s-17.666 -12.666 -27.999 -15.999s-20.5 -5 -30.5 -5s-20.167 1.66699 -30.5 5s-19.666 8.66602 -27.999 15.999s-15 17 -20 29s-7.5 27 -7.5 45v315h-130v-712h130v199
c12.667 -9.33301 28 -14 46 -14c24 0 47.333 4.5 70 13.5s42.667 22.5 60 40.5v-48h127z" />
    <glyph glyph-name="paragraph" unicode="&#xb6;" horiz-adv-x="668" 
d="M585 -191l-0.00195312 903h-319c-34.667 0 -66.167 -4.5 -94.5 -13.5s-52.666 -22 -72.999 -39s-36 -38.167 -47 -63.5s-16.5 -54.333 -16.5 -87c0 -28 5.16699 -54.167 15.5 -78.5s24.333 -45.5 42 -63.5s37.834 -32.333 60.501 -43s46.667 -16 72 -16v-499h130v779h100
v-779h130z" />
    <glyph glyph-name="periodcentered" unicode="&#xb7;" horiz-adv-x="285" 
d="M217 212v148h-149v-148h149z" />
    <glyph glyph-name="periodcentered" unicode="&#x2219;" horiz-adv-x="285" 
d="M217 212v148h-149v-148h149z" />
    <glyph glyph-name="cedilla" unicode="&#xb8;" horiz-adv-x="500" 
d="M325 -60h-96l-69 -146h121z" />
    <glyph glyph-name="onesuperior" unicode="&#xb9;" horiz-adv-x="292" 
d="M223 285v427h-95l-90 -78v-106l90 78v-321h95z" />
    <glyph glyph-name="ordmasculine" unicode="&#xba;" horiz-adv-x="462" 
d="M407 504c0 38 -3.16699 69.5 -9.5 94.5s-19.166 47.5 -38.499 67.5c-13.333 13.333 -30.333 25.166 -51 35.499s-46.334 15.5 -77.001 15.5s-56.334 -5.16699 -77.001 -15.5s-37.667 -22.166 -51 -35.499c-19.333 -20 -32.166 -42.5 -38.499 -67.5s-9.5 -56.5 -9.5 -94.5
s3.16699 -69.333 9.5 -94s19.166 -47 38.499 -67c13.333 -13.333 30.333 -25.166 51 -35.499s46.334 -15.5 77.001 -15.5s56.334 5.16699 77.001 15.5s37.667 22.166 51 35.499c19.333 20 32.166 42.333 38.499 67s9.5 56 9.5 94zM302 504
c0 -21.333 -1.16699 -40.666 -3.5 -57.999s-8.83301 -31.333 -19.5 -42c-12 -12 -28 -18 -48 -18s-36 6 -48 18c-10.667 10.667 -17.167 24.667 -19.5 42s-3.5 36.666 -3.5 57.999s1.16699 40.833 3.5 58.5s8.83301 31.834 19.5 42.501c12 12 28 18 48 18s36 -6 48 -18
c10.667 -10.667 17.167 -24.834 19.5 -42.501s3.5 -37.167 3.5 -58.5z" />
    <glyph glyph-name="guillemotright" unicode="&#xbb;" horiz-adv-x="628" 
d="M595 275l-250 248v-155l94 -93l-94 -93v-155zM316 275l-249 248v-155l95 -93l-95 -93v-155z" />
    <glyph glyph-name="onequarter" unicode="&#xbc;" horiz-adv-x="836" 
d="M796 57v89h-33v62h-90v-62h-74l144 281h-103l-143 -281v-89h176v-57h90v57h33zM625 712h-102l-337 -712h102zM223 285v427h-95l-90 -78v-106l90 78v-321h95z" />
    <glyph glyph-name="onehalf" unicode="&#xbd;" horiz-adv-x="862" 
d="M819 0l0.000976562 85.001h-157l105 114c16.667 18 29.5 34.333 38.5 49s13.5 33 13.5 55c0 40 -12.833 71.333 -38.5 94s-58.167 34 -97.5 34c-18.667 0 -36.334 -2.83301 -53.001 -8.5s-31.167 -14 -43.5 -25s-22 -24.5 -29 -40.5s-10.5 -34.333 -10.5 -55h95
c0 17.333 4.33301 29 13 35s18 9 28 9c13.333 0 23.833 -3.83301 31.5 -11.5s11.5 -18.167 11.5 -31.5c0 -9.33301 -1.83301 -17.333 -5.5 -24s-9.5 -14.334 -17.5 -23.001l-156 -171v-85h272zM620.001 712.001h-101l-337 -712h101zM223.001 285.001v427h-95l-90 -78v-106
l90 78v-321h95z" />
    <glyph glyph-name="threequarters" unicode="&#xbe;" horiz-adv-x="865" 
d="M825 57v89h-33v62h-90v-62h-74l144 281h-103l-143 -281v-89h176v-57h90v57h33zM657 712h-102l-337 -712h102zM325 412c0 25.333 -5.16309 45.334 -15.4961 60.001s-21.833 26 -34.5 34c11.333 7.33301 21.666 17.333 30.999 30s14 30.667 14 54
c0 18.667 -3.5 35.667 -10.5 51s-16.5 28.5 -28.5 39.5s-26.333 19.667 -43 26s-34.667 9.5 -54 9.5c-18.667 0 -36.334 -2.83301 -53.001 -8.5s-31.167 -14 -43.5 -25s-22 -24.333 -29 -40s-10.5 -33.5 -10.5 -53.5h94c0 13.333 4.16699 23.666 12.5 30.999
s18.166 11 29.499 11s21.166 -3.66699 29.499 -11s12.5 -18.333 12.5 -33c0 -10.667 -3.5 -20.5 -10.5 -29.5s-18.167 -13.5 -33.5 -13.5h-13v-81h13c15.333 0 27.333 -4.5 36 -13.5s13 -20.5 13 -34.5c0 -16 -4.33301 -28.333 -13 -37s-20 -13 -34 -13
c-13.333 0 -24.5 4 -33.5 12s-13.5 20 -13.5 36h-94c0 -23.333 4 -43.333 12 -60s18.667 -30.334 32 -41.001s28.333 -18.5 45 -23.5s34 -7.5 52 -7.5c18.667 0 36.5 2.66699 53.5 8s32 13.333 45 24s23.333 24.334 31 41.001s11.5 36 11.5 58z" />
    <glyph glyph-name="questiondown" unicode="&#xbf;" horiz-adv-x="523" 
d="M311 388v133h-138v-133h138zM457 4l-130.001 0.00390625c0 -23.333 -6.83301 -43.166 -20.5 -59.499s-33.834 -24.5 -60.501 -24.5c-25.333 0 -45 7.83301 -59 23.5s-21 35.167 -21 58.5c0 11.333 2.83301 22.666 8.5 33.999s12.5 22.333 20.5 33l74 95
c13.333 17.333 23 33.666 29 48.999s9 33.666 9 54.999v30h-130v-20c0 -8.66699 -1.66699 -17.667 -5 -27s-7.66602 -17.333 -12.999 -24l-74 -99c-14 -18.667 -25.667 -37.834 -35 -57.501s-14 -42.167 -14 -67.5c0 -32 5.66699 -60.333 17 -85s26.5 -45.5 45.5 -62.5
s41.333 -30 67 -39s52.5 -13.5 80.5 -13.5c28.667 0 55.834 4.66699 81.501 14s48.167 22.666 67.5 39.999s34.5 38.333 45.5 63s16.5 52.667 16.5 84z" />
    <glyph glyph-name="Agrave" unicode="&#xc0;" horiz-adv-x="638" 
d="M633 0l-260 712h-109l-259 -712h145l43 126h253l42 -126h145zM409 243h-177l90 259zM372 781l-64 170h-137l114 -170h87z" />
    <glyph glyph-name="Aacute" unicode="&#xc1;" horiz-adv-x="638" 
d="M633 0l-260 712h-109l-259 -712h145l43 126h253l42 -126h145zM409 243h-177l90 259zM463 951h-137l-64 -170h87z" />
    <glyph glyph-name="Acircumflex" unicode="&#xc2;" horiz-adv-x="638" 
d="M633 0l-260 712h-109l-259 -712h145l43 126h253l42 -126h145zM409 243h-177l90 259zM501 781l-132 169h-104l-132 -169h101l83 91l83 -91h101z" />
    <glyph glyph-name="Atilde" unicode="&#xc3;" horiz-adv-x="638" 
d="M633 0l-260 712h-109l-259 -712h145l43 126h253l42 -126h145zM409 243h-177l90 259zM497 851l-58 56.999c-13.333 -13.333 -24.333 -21.5 -33 -24.5s-17.334 -4.5 -26.001 -4.5c-10 0 -19.167 1.5 -27.5 4.5s-17.5 7.5 -27.5 13.5c-14 8.66699 -26.5 14.667 -37.5 18
s-24.167 5 -39.5 5c-19.333 0 -37.333 -4.33301 -54 -13s-36 -24 -58 -46l56 -57c13.333 13.333 24.333 21.5 33 24.5s17.334 4.5 26.001 4.5c10 0 19.5 -1.66699 28.5 -5s18.167 -7.66602 27.5 -12.999c14 -8 26.667 -13.833 38 -17.5s24.333 -5.5 39 -5.5
c19.333 0 37.5 4.33301 54.5 13s36.5 24 58.5 46z" />
    <glyph glyph-name="Adieresis" unicode="&#xc4;" horiz-adv-x="638" 
d="M633 0l-260 712h-109l-259 -712h145l43 126h253l42 -126h145zM409 243h-177l90 259zM483 783v125h-111v-125h111zM262 783v125h-111v-125h111z" />
    <glyph glyph-name="Aring" unicode="&#xc5;" horiz-adv-x="638" 
d="M633 0l-260 712h-109l-259 -712h145l43 126h253l42 -126h145zM409 243h-177l90 259zM448 884c0 18 -3.5 35 -10.5 51s-16.333 30 -28 42s-25.5 21.333 -41.5 28s-33 10 -51 10s-35 -3.5 -51 -10.5s-29.833 -16.333 -41.5 -28s-21 -25.5 -28 -41.5s-10.5 -33 -10.5 -51
s3.5 -35 10.5 -51s16.333 -29.833 28 -41.5s25.5 -21 41.5 -28s33 -10.5 51 -10.5s35 3.5 51 10.5s29.833 16.333 41.5 28s21 25.5 28 41.5s10.5 33 10.5 51zM375 884c0 -16 -5.66699 -29.833 -17 -41.5s-25 -17.5 -41 -17.5s-29.667 5.83301 -41 17.5s-17 25.5 -17 41.5
s5.66699 29.667 17 41s25 17 41 17s29.667 -5.66699 41 -17s17 -25 17 -41z" />
    <glyph glyph-name="AE" unicode="&#xc6;" horiz-adv-x="979" 
d="M926 0v124h-330v172h282v124h-282v168h330v124h-551l-372 -712h149l81 156h225v-156h468zM458 273h-165l165 315v-315z" />
    <glyph glyph-name="Ccedilla" unicode="&#xc7;" horiz-adv-x="620" 
d="M583 219l-141 -0.00390625c-7.33301 -28.667 -20.333 -52.667 -39 -72s-45.667 -29 -81 -29c-19.333 0 -36.5 3.33301 -51.5 10s-27.5 15.667 -37.5 27c-6.66699 7.33301 -12.334 15.5 -17.001 24.5s-8.33398 20.833 -11.001 35.5s-4.5 33.334 -5.5 56.001
s-1.5 51 -1.5 85s0.5 62.333 1.5 85s2.83301 41.334 5.5 56.001s6.33398 26.5 11.001 35.5s10.334 17.167 17.001 24.5c10 11.333 22.5 20.333 37.5 27s32.167 10 51.5 10c35.333 0 62.333 -9.66699 81 -29s31.667 -43.333 39 -72h141c-6 37.333 -16.833 70 -32.5 98
s-35 51.5 -58 70.5s-49 33.167 -78 42.5s-60.167 14 -93.5 14c-39.333 0 -74.833 -6.66699 -106.5 -20s-60.167 -32.666 -85.5 -57.999c-18 -18 -31.833 -37.167 -41.5 -57.5s-16.5 -42.166 -20.5 -65.499s-6.33301 -48.333 -7 -75s-1 -55.334 -1 -86.001
s0.333008 -59.334 1 -86.001s3 -51.667 7 -75s10.833 -45.166 20.5 -65.499s23.5 -39.5 41.5 -57.5c25.333 -25.333 53.833 -44.666 85.5 -57.999s67.167 -20 106.5 -20c32.667 0 63.667 4.66699 93 14s55.5 23.5 78.5 42.5s42.333 42.5 58 70.5s26.5 60.667 32.5 98z
M379 -60.0039h-96l-69 -146h121z" />
    <glyph glyph-name="Egrave" unicode="&#xc8;" horiz-adv-x="605" 
d="M552 0v124h-330v173h281v124h-281v167h330v124h-469v-712h469zM365 781l-64 170h-137l114 -170h87z" />
    <glyph glyph-name="Eacute" unicode="&#xc9;" horiz-adv-x="605" 
d="M552 0v124h-330v173h281v124h-281v167h330v124h-469v-712h469zM455 951h-137l-64 -170h87z" />
    <glyph glyph-name="Ecircumflex" unicode="&#xca;" horiz-adv-x="605" 
d="M552 0v124h-330v173h281v124h-281v167h330v124h-469v-712h469zM494 781l-132 169h-104l-132 -169h101l83 91l83 -91h101z" />
    <glyph glyph-name="Edieresis" unicode="&#xcb;" horiz-adv-x="605" 
d="M552 0v124h-330v173h281v124h-281v167h330v124h-469v-712h469zM476 783v125h-111v-125h111zM255 783v125h-111v-125h111z" />
    <glyph glyph-name="Igrave" unicode="&#xcc;" horiz-adv-x="305" 
d="M222 0v712h-139v-712h139zM285 781l-64 170h-137l114 -170h87z" />
    <glyph glyph-name="Iacute" unicode="&#xcd;" horiz-adv-x="305" 
d="M222 0v712h-139v-712h139zM285 951h-137l-64 -170h87z" />
    <glyph glyph-name="Icircumflex" unicode="&#xce;" horiz-adv-x="305" 
d="M222 0v712h-139v-712h139zM451 781l-132 169h-104l-132 -169h101l83 91l83 -91h101z" />
    <glyph glyph-name="Idieresis" unicode="&#xcf;" horiz-adv-x="305" 
d="M222 0v712h-139v-712h139zM416 783v125h-111v-125h111zM195 783v125h-111v-125h111z" />
    <glyph glyph-name="Eth" unicode="&#xd0;" horiz-adv-x="682" 
d="M623 356c0 32 -0.166992 60.499 -0.5 85.499s-2.33301 48.167 -6 69.5s-9.83398 41.333 -18.501 60s-21.334 37.667 -38.001 57c-24.667 28 -53.667 49 -87 63s-70 21 -110 21h-257v-299h-69v-106h69v-307h255c42 0 79.833 7.33301 113.5 22s62.167 35 85.5 61
c16.667 18 29.334 36.333 38.001 55s14.834 38.667 18.501 60s5.66699 44.833 6 70.5s0.5 54.834 0.5 87.501zM484 353.999c0 -32 -0.333984 -57.835 -1.00098 -77.502s-1.66699 -35.834 -3 -48.501s-3.66602 -22.667 -6.99902 -30s-7.33301 -14.666 -12 -21.999
c-11.333 -16.667 -26 -29.667 -44 -39s-40.333 -14 -67 -14h-105v184h116v106h-116v176h105c26 0 47.667 -4.33301 65 -13s32 -21.667 44 -39c5.33301 -7.33301 9.66602 -15.166 12.999 -23.499s5.83301 -19.166 7.5 -32.499s2.83398 -30 3.50098 -50s1 -45.667 1 -77z" />
    <glyph glyph-name="Ntilde" unicode="&#xd1;" horiz-adv-x="711" 
d="M628 0v712h-139v-436l-282 436h-124v-712h139v437l282 -437h124zM536 851l-58 56.999c-13.333 -13.333 -24.333 -21.5 -33 -24.5s-17.334 -4.5 -26.001 -4.5c-10 0 -19.167 1.5 -27.5 4.5s-17.5 7.5 -27.5 13.5c-14 8.66699 -26.5 14.667 -37.5 18s-24.167 5 -39.5 5
c-19.333 0 -37.333 -4.33301 -54 -13s-36 -24 -58 -46l56 -57c13.333 13.333 24.333 21.5 33 24.5s17.334 4.5 26.001 4.5c10 0 19.5 -1.66699 28.5 -5s18.167 -7.66602 27.5 -12.999c14 -8 26.667 -13.833 38 -17.5s24.333 -5.5 39 -5.5c19.333 0 37.5 4.33301 54.5 13
s36.5 24 58.5 46z" />
    <glyph glyph-name="Ograve" unicode="&#xd2;" horiz-adv-x="644" 
d="M585 356c0 30.667 -0.333008 59.334 -1 86.001s-3.16699 51.667 -7.5 75s-11.333 45.166 -21 65.499s-23.5 39.5 -41.5 57.5c-25.333 25.333 -53.5 44.666 -84.5 57.999s-66.833 20 -107.5 20s-76.667 -6.66699 -108 -20s-59.666 -32.666 -84.999 -57.999
c-18 -18 -31.833 -37.167 -41.5 -57.5s-16.5 -42.166 -20.5 -65.499s-6.33301 -48.333 -7 -75s-1 -55.334 -1 -86.001s0.333008 -59.334 1 -86.001s3 -51.667 7 -75s10.833 -45.166 20.5 -65.499s23.5 -39.5 41.5 -57.5c25.333 -25.333 53.666 -44.666 84.999 -57.999
s67.333 -20 108 -20s76.5 6.66699 107.5 20s59.167 32.666 84.5 57.999c18 18 31.833 37.167 41.5 57.5s16.667 42.166 21 65.499s6.83301 48.333 7.5 75s1 55.334 1 86.001zM446 356c0 -34 -0.5 -62.167 -1.5 -84.5s-2.83301 -40.833 -5.5 -55.5
s-6.33398 -26.5 -11.001 -35.5s-10.334 -17.167 -17.001 -24.5c-10 -11.333 -22.5 -20.5 -37.5 -27.5s-32.167 -10.5 -51.5 -10.5s-36.666 3.5 -51.999 10.5s-28 16.167 -38 27.5c-6.66699 7.33301 -12.167 15.5 -16.5 24.5s-7.83301 20.833 -10.5 35.5
s-4.5 33.167 -5.5 55.5s-1.5 50.5 -1.5 84.5s0.5 62.167 1.5 84.5s2.83301 40.833 5.5 55.5s6.16699 26.5 10.5 35.5s9.83301 17.167 16.5 24.5c10 11.333 22.667 20.5 38 27.5s32.666 10.5 51.999 10.5s36.5 -3.5 51.5 -10.5s27.5 -16.167 37.5 -27.5
c6.66699 -7.33301 12.334 -15.5 17.001 -24.5s8.33398 -20.833 11.001 -35.5s4.5 -33.167 5.5 -55.5s1.5 -50.5 1.5 -84.5zM377 781l-64 170h-137l114 -170h87z" />
    <glyph glyph-name="Oacute" unicode="&#xd3;" horiz-adv-x="644" 
d="M585 356c0 30.667 -0.333008 59.334 -1 86.001s-3.16699 51.667 -7.5 75s-11.333 45.166 -21 65.499s-23.5 39.5 -41.5 57.5c-25.333 25.333 -53.5 44.666 -84.5 57.999s-66.833 20 -107.5 20s-76.667 -6.66699 -108 -20s-59.666 -32.666 -84.999 -57.999
c-18 -18 -31.833 -37.167 -41.5 -57.5s-16.5 -42.166 -20.5 -65.499s-6.33301 -48.333 -7 -75s-1 -55.334 -1 -86.001s0.333008 -59.334 1 -86.001s3 -51.667 7 -75s10.833 -45.166 20.5 -65.499s23.5 -39.5 41.5 -57.5c25.333 -25.333 53.666 -44.666 84.999 -57.999
s67.333 -20 108 -20s76.5 6.66699 107.5 20s59.167 32.666 84.5 57.999c18 18 31.833 37.167 41.5 57.5s16.667 42.166 21 65.499s6.83301 48.333 7.5 75s1 55.334 1 86.001zM446 356c0 -34 -0.5 -62.167 -1.5 -84.5s-2.83301 -40.833 -5.5 -55.5
s-6.33398 -26.5 -11.001 -35.5s-10.334 -17.167 -17.001 -24.5c-10 -11.333 -22.5 -20.5 -37.5 -27.5s-32.167 -10.5 -51.5 -10.5s-36.666 3.5 -51.999 10.5s-28 16.167 -38 27.5c-6.66699 7.33301 -12.167 15.5 -16.5 24.5s-7.83301 20.833 -10.5 35.5
s-4.5 33.167 -5.5 55.5s-1.5 50.5 -1.5 84.5s0.5 62.167 1.5 84.5s2.83301 40.833 5.5 55.5s6.16699 26.5 10.5 35.5s9.83301 17.167 16.5 24.5c10 11.333 22.667 20.5 38 27.5s32.666 10.5 51.999 10.5s36.5 -3.5 51.5 -10.5s27.5 -16.167 37.5 -27.5
c6.66699 -7.33301 12.334 -15.5 17.001 -24.5s8.33398 -20.833 11.001 -35.5s4.5 -33.167 5.5 -55.5s1.5 -50.5 1.5 -84.5zM468 951h-137l-64 -170h87z" />
    <glyph glyph-name="Ocircumflex" unicode="&#xd4;" horiz-adv-x="644" 
d="M585 356c0 30.667 -0.333008 59.334 -1 86.001s-3.16699 51.667 -7.5 75s-11.333 45.166 -21 65.499s-23.5 39.5 -41.5 57.5c-25.333 25.333 -53.5 44.666 -84.5 57.999s-66.833 20 -107.5 20s-76.667 -6.66699 -108 -20s-59.666 -32.666 -84.999 -57.999
c-18 -18 -31.833 -37.167 -41.5 -57.5s-16.5 -42.166 -20.5 -65.499s-6.33301 -48.333 -7 -75s-1 -55.334 -1 -86.001s0.333008 -59.334 1 -86.001s3 -51.667 7 -75s10.833 -45.166 20.5 -65.499s23.5 -39.5 41.5 -57.5c25.333 -25.333 53.666 -44.666 84.999 -57.999
s67.333 -20 108 -20s76.5 6.66699 107.5 20s59.167 32.666 84.5 57.999c18 18 31.833 37.167 41.5 57.5s16.667 42.166 21 65.499s6.83301 48.333 7.5 75s1 55.334 1 86.001zM446 356c0 -34 -0.5 -62.167 -1.5 -84.5s-2.83301 -40.833 -5.5 -55.5
s-6.33398 -26.5 -11.001 -35.5s-10.334 -17.167 -17.001 -24.5c-10 -11.333 -22.5 -20.5 -37.5 -27.5s-32.167 -10.5 -51.5 -10.5s-36.666 3.5 -51.999 10.5s-28 16.167 -38 27.5c-6.66699 7.33301 -12.167 15.5 -16.5 24.5s-7.83301 20.833 -10.5 35.5
s-4.5 33.167 -5.5 55.5s-1.5 50.5 -1.5 84.5s0.5 62.167 1.5 84.5s2.83301 40.833 5.5 55.5s6.16699 26.5 10.5 35.5s9.83301 17.167 16.5 24.5c10 11.333 22.667 20.5 38 27.5s32.666 10.5 51.999 10.5s36.5 -3.5 51.5 -10.5s27.5 -16.167 37.5 -27.5
c6.66699 -7.33301 12.334 -15.5 17.001 -24.5s8.33398 -20.833 11.001 -35.5s4.5 -33.167 5.5 -55.5s1.5 -50.5 1.5 -84.5zM506 781l-132 169h-104l-132 -169h101l83 91l83 -91h101z" />
    <glyph glyph-name="Otilde" unicode="&#xd5;" horiz-adv-x="644" 
d="M585 356c0 30.667 -0.333008 59.334 -1 86.001s-3.16699 51.667 -7.5 75s-11.333 45.166 -21 65.499s-23.5 39.5 -41.5 57.5c-25.333 25.333 -53.5 44.666 -84.5 57.999s-66.833 20 -107.5 20s-76.667 -6.66699 -108 -20s-59.666 -32.666 -84.999 -57.999
c-18 -18 -31.833 -37.167 -41.5 -57.5s-16.5 -42.166 -20.5 -65.499s-6.33301 -48.333 -7 -75s-1 -55.334 -1 -86.001s0.333008 -59.334 1 -86.001s3 -51.667 7 -75s10.833 -45.166 20.5 -65.499s23.5 -39.5 41.5 -57.5c25.333 -25.333 53.666 -44.666 84.999 -57.999
s67.333 -20 108 -20s76.5 6.66699 107.5 20s59.167 32.666 84.5 57.999c18 18 31.833 37.167 41.5 57.5s16.667 42.166 21 65.499s6.83301 48.333 7.5 75s1 55.334 1 86.001zM446 356c0 -34 -0.5 -62.167 -1.5 -84.5s-2.83301 -40.833 -5.5 -55.5
s-6.33398 -26.5 -11.001 -35.5s-10.334 -17.167 -17.001 -24.5c-10 -11.333 -22.5 -20.5 -37.5 -27.5s-32.167 -10.5 -51.5 -10.5s-36.666 3.5 -51.999 10.5s-28 16.167 -38 27.5c-6.66699 7.33301 -12.167 15.5 -16.5 24.5s-7.83301 20.833 -10.5 35.5
s-4.5 33.167 -5.5 55.5s-1.5 50.5 -1.5 84.5s0.5 62.167 1.5 84.5s2.83301 40.833 5.5 55.5s6.16699 26.5 10.5 35.5s9.83301 17.167 16.5 24.5c10 11.333 22.667 20.5 38 27.5s32.666 10.5 51.999 10.5s36.5 -3.5 51.5 -10.5s27.5 -16.167 37.5 -27.5
c6.66699 -7.33301 12.334 -15.5 17.001 -24.5s8.33398 -20.833 11.001 -35.5s4.5 -33.167 5.5 -55.5s1.5 -50.5 1.5 -84.5zM502 851l-58 56.999c-13.333 -13.333 -24.333 -21.5 -33 -24.5s-17.334 -4.5 -26.001 -4.5c-10 0 -19.167 1.5 -27.5 4.5s-17.5 7.5 -27.5 13.5
c-14 8.66699 -26.5 14.667 -37.5 18s-24.167 5 -39.5 5c-19.333 0 -37.333 -4.33301 -54 -13s-36 -24 -58 -46l56 -57c13.333 13.333 24.333 21.5 33 24.5s17.334 4.5 26.001 4.5c10 0 19.5 -1.66699 28.5 -5s18.167 -7.66602 27.5 -12.999c14 -8 26.667 -13.833 38 -17.5
s24.333 -5.5 39 -5.5c19.333 0 37.5 4.33301 54.5 13s36.5 24 58.5 46z" />
    <glyph glyph-name="Odieresis" unicode="&#xd6;" horiz-adv-x="644" 
d="M585 356c0 30.667 -0.333008 59.334 -1 86.001s-3.16699 51.667 -7.5 75s-11.333 45.166 -21 65.499s-23.5 39.5 -41.5 57.5c-25.333 25.333 -53.5 44.666 -84.5 57.999s-66.833 20 -107.5 20s-76.667 -6.66699 -108 -20s-59.666 -32.666 -84.999 -57.999
c-18 -18 -31.833 -37.167 -41.5 -57.5s-16.5 -42.166 -20.5 -65.499s-6.33301 -48.333 -7 -75s-1 -55.334 -1 -86.001s0.333008 -59.334 1 -86.001s3 -51.667 7 -75s10.833 -45.166 20.5 -65.499s23.5 -39.5 41.5 -57.5c25.333 -25.333 53.666 -44.666 84.999 -57.999
s67.333 -20 108 -20s76.5 6.66699 107.5 20s59.167 32.666 84.5 57.999c18 18 31.833 37.167 41.5 57.5s16.667 42.166 21 65.499s6.83301 48.333 7.5 75s1 55.334 1 86.001zM446 356c0 -34 -0.5 -62.167 -1.5 -84.5s-2.83301 -40.833 -5.5 -55.5
s-6.33398 -26.5 -11.001 -35.5s-10.334 -17.167 -17.001 -24.5c-10 -11.333 -22.5 -20.5 -37.5 -27.5s-32.167 -10.5 -51.5 -10.5s-36.666 3.5 -51.999 10.5s-28 16.167 -38 27.5c-6.66699 7.33301 -12.167 15.5 -16.5 24.5s-7.83301 20.833 -10.5 35.5
s-4.5 33.167 -5.5 55.5s-1.5 50.5 -1.5 84.5s0.5 62.167 1.5 84.5s2.83301 40.833 5.5 55.5s6.16699 26.5 10.5 35.5s9.83301 17.167 16.5 24.5c10 11.333 22.667 20.5 38 27.5s32.666 10.5 51.999 10.5s36.5 -3.5 51.5 -10.5s27.5 -16.167 37.5 -27.5
c6.66699 -7.33301 12.334 -15.5 17.001 -24.5s8.33398 -20.833 11.001 -35.5s4.5 -33.167 5.5 -55.5s1.5 -50.5 1.5 -84.5zM488 783v125h-111v-125h111zM267 783v125h-111v-125h111z" />
    <glyph glyph-name="multiply" unicode="&#xd7;" 
d="M494 145l-141 141l141 141l-82 82l-141 -141l-140 141l-82 -82l141 -141l-141 -141l82 -82l140 141l141 -141z" />
    <glyph glyph-name="Oslash" unicode="&#xd8;" horiz-adv-x="652" 
d="M585 356c0 30.667 -0.333984 59.334 -1.00098 86.001s-3.16699 51.667 -7.5 75s-11.333 45.166 -21 65.499s-23.5 39.5 -41.5 57.5l-5 5l53 111h-98l-29 -60c-32 14.667 -69.667 22 -113 22c-40.667 0 -76.667 -6.66699 -108 -20s-59.666 -32.666 -84.999 -57.999
c-18 -18 -31.833 -37.167 -41.5 -57.5s-16.5 -42.166 -20.5 -65.499s-6.33301 -48.333 -7 -75s-1 -55.334 -1 -86.001s0.333008 -59.334 1 -86.001s3 -51.667 7 -75s10.833 -45.166 20.5 -65.499s23.5 -39.5 41.5 -57.5l5 -5l-53 -111h99l29 60
c32 -14.667 69.667 -22 113 -22c40.667 0 76.5 6.66699 107.5 20s59.167 32.666 84.5 57.999c18 18 31.833 37.167 41.5 57.5s16.667 42.166 21 65.499s6.83301 48.333 7.5 75s1 55.334 1 86.001zM384.999 578l-178 -372.999c-3.33301 14.667 -5.66602 33.667 -6.99902 57
s-2 54.666 -2 93.999c0 34 0.5 62.167 1.5 84.5s2.83301 40.833 5.5 55.5s6.16699 26.5 10.5 35.5s9.83301 17.167 16.5 24.5c10 11.333 22.667 20.5 38 27.5s32.666 10.5 51.999 10.5c24.667 0 45.667 -5.33301 63 -16zM445.999 356.001
c0 -34 -0.498047 -62.168 -1.49805 -84.501s-2.83301 -40.833 -5.5 -55.5s-6.33398 -26.5 -11.001 -35.5s-10.334 -17.167 -17.001 -24.5c-10 -11.333 -22.5 -20.5 -37.5 -27.5s-32.167 -10.5 -51.5 -10.5c-24 0 -45.333 5.66699 -64 17l178 372
c3.33301 -14.667 5.83301 -33.667 7.5 -57s2.5 -54.666 2.5 -93.999z" />
    <glyph glyph-name="Ugrave" unicode="&#xd9;" horiz-adv-x="668" 
d="M596 244l-0.00585938 468h-138v-463c0 -41.333 -11.167 -73.5 -33.5 -96.5s-52.5 -34.5 -90.5 -34.5s-68 11.5 -90 34.5s-33 55.167 -33 96.5v463h-139v-468c0 -38 6.83301 -72.333 20.5 -103s32.334 -56.834 56.001 -78.501s51.334 -38.5 83.001 -50.5
s65.834 -18 102.501 -18s70.834 6 102.501 18s59.334 28.833 83.001 50.5s42.334 47.834 56.001 78.501s20.5 65 20.5 103zM388.994 781l-64 170h-137l114 -170h87z" />
    <glyph glyph-name="Uacute" unicode="&#xda;" horiz-adv-x="668" 
d="M596 244l-0.00585938 468h-138v-463c0 -41.333 -11.167 -73.5 -33.5 -96.5s-52.5 -34.5 -90.5 -34.5s-68 11.5 -90 34.5s-33 55.167 -33 96.5v463h-139v-468c0 -38 6.83301 -72.333 20.5 -103s32.334 -56.834 56.001 -78.501s51.334 -38.5 83.001 -50.5
s65.834 -18 102.501 -18s70.834 6 102.501 18s59.334 28.833 83.001 50.5s42.334 47.834 56.001 78.501s20.5 65 20.5 103zM479.994 951h-137l-64 -170h87z" />
    <glyph glyph-name="Ucircumflex" unicode="&#xdb;" horiz-adv-x="668" 
d="M596 244l-0.00585938 468h-138v-463c0 -41.333 -11.167 -73.5 -33.5 -96.5s-52.5 -34.5 -90.5 -34.5s-68 11.5 -90 34.5s-33 55.167 -33 96.5v463h-139v-468c0 -38 6.83301 -72.333 20.5 -103s32.334 -56.834 56.001 -78.501s51.334 -38.5 83.001 -50.5
s65.834 -18 102.501 -18s70.834 6 102.501 18s59.334 28.833 83.001 50.5s42.334 47.834 56.001 78.501s20.5 65 20.5 103zM517.994 781l-132 169h-104l-132 -169h101l83 91l83 -91h101z" />
    <glyph glyph-name="Udieresis" unicode="&#xdc;" horiz-adv-x="668" 
d="M596 244l-0.00585938 468h-138v-463c0 -41.333 -11.167 -73.5 -33.5 -96.5s-52.5 -34.5 -90.5 -34.5s-68 11.5 -90 34.5s-33 55.167 -33 96.5v463h-139v-468c0 -38 6.83301 -72.333 20.5 -103s32.334 -56.834 56.001 -78.501s51.334 -38.5 83.001 -50.5
s65.834 -18 102.501 -18s70.834 6 102.501 18s59.334 28.833 83.001 50.5s42.334 47.834 56.001 78.501s20.5 65 20.5 103zM499.994 783v125h-111v-125h111zM278.994 783v125h-111v-125h111z" />
    <glyph glyph-name="Yacute" unicode="&#xdd;" horiz-adv-x="572" 
d="M569 712h-151l-131 -287l-133 287h-151l214 -420v-292h138v292zM431 951h-137l-64 -170h87z" />
    <glyph glyph-name="Thorn" unicode="&#xde;" horiz-adv-x="633" 
d="M594 360c0 30 -5.33301 58.5 -16 85.5s-26.167 50.5 -46.5 70.5s-45 35.833 -74 47.5s-61.833 17.5 -98.5 17.5h-137v131h-139v-712h139v138h137c36.667 0 69.5 5.83301 98.5 17.5s53.667 27.667 74 48s35.833 44 46.5 71s16 55.5 16 85.5zM455 360
c0 -29.333 -9.16699 -53 -27.5 -71s-43.5 -27 -75.5 -27h-130v195h130c32 0 57.167 -8.83301 75.5 -26.5s27.5 -41.167 27.5 -70.5z" />
    <glyph glyph-name="germandbls" unicode="&#xdf;" horiz-adv-x="574" 
d="M516 161l0.00292969 159.997c0 31.333 -5.66699 55 -17 71s-26.333 28.667 -45 38c15.333 9.33301 29.333 22.833 42 40.5s19 41.834 19 72.501c0 30 -5.33301 56 -16 78s-25.667 40.167 -45 54.5s-42.333 25 -69 32s-55.667 10.5 -87 10.5
c-32 0 -61.833 -3.66699 -89.5 -11s-51.5 -19 -71.5 -35s-35.667 -36.5 -47 -61.5s-17 -54.833 -17 -89.5v-521h130v511c0 30 6.66699 53.167 20 69.5s37.666 24.5 72.999 24.5c31.333 0 54.666 -7 69.999 -21c12.667 -11.333 19 -26.333 19 -45
c0 -21.333 -6 -36.666 -18 -45.999s-26 -14 -42 -14h-28v-102h28c19.333 0 34.333 -5.33301 45 -16c10 -10 15 -25 15 -45v-144c0 -21.333 -5.66699 -37 -17 -47s-26.333 -15 -45 -15h-26v-110h52c29.333 0 54.166 3.5 74.499 10.5s37.5 17.5 51.5 31.5
c27.333 26.667 41 66.334 41 119.001z" />
    <glyph glyph-name="agrave" unicode="&#xe0;" horiz-adv-x="534" 
d="M467 0l-0.00488281 343.001c0 61.333 -18.667 107.333 -56 138s-92.666 46 -165.999 46c-43.333 0 -79.166 -5 -107.499 -15s-55.166 -29 -80.499 -57l83 -81c6.66699 8 13.334 14.667 20.001 20s13.834 9.66602 21.501 12.999s16.167 5.83301 25.5 7.5
s20.333 2.5 33 2.5c34.667 0 59.5 -6.5 74.5 -19.5s22.5 -33.833 22.5 -62.5v-26h-123c-30 0 -56.167 -4 -78.5 -12s-40.833 -18.833 -55.5 -32.5s-25.667 -29.667 -33 -48s-11 -37.833 -11 -58.5c0 -23.333 3.66699 -45 11 -65s18 -37.333 32 -52
c30.667 -30.667 75 -46 133 -46c30 0 54.5 4 73.5 12s37.167 20.667 54.5 38v-45h127zM336.995 192.001c0 -32 -6.33398 -54 -19.001 -66c-11.333 -11.333 -23.333 -18.333 -36 -21s-28 -4 -46 -4c-25.333 0 -44.166 5.5 -56.499 16.5s-18.5 25.5 -18.5 43.5
c0 18.667 6.33301 33.167 19 43.5s30.667 15.5 54 15.5h103v-28zM315.994 604.001l-64 170h-137l114 -170h87z" />
    <glyph glyph-name="aacute" unicode="&#xe1;" horiz-adv-x="534" 
d="M467 0l-0.00488281 343.001c0 61.333 -18.667 107.333 -56 138s-92.666 46 -165.999 46c-43.333 0 -79.166 -5 -107.499 -15s-55.166 -29 -80.499 -57l83 -81c6.66699 8 13.334 14.667 20.001 20s13.834 9.66602 21.501 12.999s16.167 5.83301 25.5 7.5
s20.333 2.5 33 2.5c34.667 0 59.5 -6.5 74.5 -19.5s22.5 -33.833 22.5 -62.5v-26h-123c-30 0 -56.167 -4 -78.5 -12s-40.833 -18.833 -55.5 -32.5s-25.667 -29.667 -33 -48s-11 -37.833 -11 -58.5c0 -23.333 3.66699 -45 11 -65s18 -37.333 32 -52
c30.667 -30.667 75 -46 133 -46c30 0 54.5 4 73.5 12s37.167 20.667 54.5 38v-45h127zM336.995 192.001c0 -32 -6.33398 -54 -19.001 -66c-11.333 -11.333 -23.333 -18.333 -36 -21s-28 -4 -46 -4c-25.333 0 -44.166 5.5 -56.499 16.5s-18.5 25.5 -18.5 43.5
c0 18.667 6.33301 33.167 19 43.5s30.667 15.5 54 15.5h103v-28zM406.994 774.001h-137l-64 -170h87z" />
    <glyph glyph-name="acircumflex" unicode="&#xe2;" horiz-adv-x="534" 
d="M467 0l-0.00488281 343.001c0 61.333 -18.667 107.333 -56 138s-92.666 46 -165.999 46c-43.333 0 -79.166 -5 -107.499 -15s-55.166 -29 -80.499 -57l83 -81c6.66699 8 13.334 14.667 20.001 20s13.834 9.66602 21.501 12.999s16.167 5.83301 25.5 7.5
s20.333 2.5 33 2.5c34.667 0 59.5 -6.5 74.5 -19.5s22.5 -33.833 22.5 -62.5v-26h-123c-30 0 -56.167 -4 -78.5 -12s-40.833 -18.833 -55.5 -32.5s-25.667 -29.667 -33 -48s-11 -37.833 -11 -58.5c0 -23.333 3.66699 -45 11 -65s18 -37.333 32 -52
c30.667 -30.667 75 -46 133 -46c30 0 54.5 4 73.5 12s37.167 20.667 54.5 38v-45h127zM336.995 192.001c0 -32 -6.33398 -54 -19.001 -66c-11.333 -11.333 -23.333 -18.333 -36 -21s-28 -4 -46 -4c-25.333 0 -44.166 5.5 -56.499 16.5s-18.5 25.5 -18.5 43.5
c0 18.667 6.33301 33.167 19 43.5s30.667 15.5 54 15.5h103v-28zM444.994 604.001l-132 169h-104l-132 -169h101l83 91l83 -91h101z" />
    <glyph glyph-name="atilde" unicode="&#xe3;" horiz-adv-x="534" 
d="M467 0l-0.00488281 343.001c0 61.333 -18.667 107.333 -56 138s-92.666 46 -165.999 46c-43.333 0 -79.166 -5 -107.499 -15s-55.166 -29 -80.499 -57l83 -81c6.66699 8 13.334 14.667 20.001 20s13.834 9.66602 21.501 12.999s16.167 5.83301 25.5 7.5
s20.333 2.5 33 2.5c34.667 0 59.5 -6.5 74.5 -19.5s22.5 -33.833 22.5 -62.5v-26h-123c-30 0 -56.167 -4 -78.5 -12s-40.833 -18.833 -55.5 -32.5s-25.667 -29.667 -33 -48s-11 -37.833 -11 -58.5c0 -23.333 3.66699 -45 11 -65s18 -37.333 32 -52
c30.667 -30.667 75 -46 133 -46c30 0 54.5 4 73.5 12s37.167 20.667 54.5 38v-45h127zM336.995 192.001c0 -32 -6.33398 -54 -19.001 -66c-11.333 -11.333 -23.333 -18.333 -36 -21s-28 -4 -46 -4c-25.333 0 -44.166 5.5 -56.499 16.5s-18.5 25.5 -18.5 43.5
c0 18.667 6.33301 33.167 19 43.5s30.667 15.5 54 15.5h103v-28zM440.994 674.001l-58 56.999c-13.333 -13.333 -24.333 -21.5 -33 -24.5s-17.334 -4.5 -26.001 -4.5c-10 0 -19.167 1.5 -27.5 4.5s-17.5 7.5 -27.5 13.5c-14 8.66699 -26.5 14.667 -37.5 18
s-24.167 5 -39.5 5c-19.333 0 -37.333 -4.33301 -54 -13s-36 -24 -58 -46l56 -57c13.333 13.333 24.333 21.5 33 24.5s17.334 4.5 26.001 4.5c10 0 19.5 -1.66699 28.5 -5s18.167 -7.66602 27.5 -12.999c14 -8 26.667 -13.833 38 -17.5s24.333 -5.5 39 -5.5
c19.333 0 37.5 4.33301 54.5 13s36.5 24 58.5 46z" />
    <glyph glyph-name="adieresis" unicode="&#xe4;" horiz-adv-x="534" 
d="M467 0l-0.00488281 343.001c0 61.333 -18.667 107.333 -56 138s-92.666 46 -165.999 46c-43.333 0 -79.166 -5 -107.499 -15s-55.166 -29 -80.499 -57l83 -81c6.66699 8 13.334 14.667 20.001 20s13.834 9.66602 21.501 12.999s16.167 5.83301 25.5 7.5
s20.333 2.5 33 2.5c34.667 0 59.5 -6.5 74.5 -19.5s22.5 -33.833 22.5 -62.5v-26h-123c-30 0 -56.167 -4 -78.5 -12s-40.833 -18.833 -55.5 -32.5s-25.667 -29.667 -33 -48s-11 -37.833 -11 -58.5c0 -23.333 3.66699 -45 11 -65s18 -37.333 32 -52
c30.667 -30.667 75 -46 133 -46c30 0 54.5 4 73.5 12s37.167 20.667 54.5 38v-45h127zM336.995 192.001c0 -32 -6.33398 -54 -19.001 -66c-11.333 -11.333 -23.333 -18.333 -36 -21s-28 -4 -46 -4c-25.333 0 -44.166 5.5 -56.499 16.5s-18.5 25.5 -18.5 43.5
c0 18.667 6.33301 33.167 19 43.5s30.667 15.5 54 15.5h103v-28zM426.994 606.001v125h-111v-125h111zM205.994 606.001v125h-111v-125h111z" />
    <glyph glyph-name="aring" unicode="&#xe5;" horiz-adv-x="534" 
d="M467 0l-0.00488281 343.001c0 61.333 -18.667 107.333 -56 138s-92.666 46 -165.999 46c-43.333 0 -79.166 -5 -107.499 -15s-55.166 -29 -80.499 -57l83 -81c6.66699 8 13.334 14.667 20.001 20s13.834 9.66602 21.501 12.999s16.167 5.83301 25.5 7.5
s20.333 2.5 33 2.5c34.667 0 59.5 -6.5 74.5 -19.5s22.5 -33.833 22.5 -62.5v-26h-123c-30 0 -56.167 -4 -78.5 -12s-40.833 -18.833 -55.5 -32.5s-25.667 -29.667 -33 -48s-11 -37.833 -11 -58.5c0 -23.333 3.66699 -45 11 -65s18 -37.333 32 -52
c30.667 -30.667 75 -46 133 -46c30 0 54.5 4 73.5 12s37.167 20.667 54.5 38v-45h127zM336.995 192.001c0 -32 -6.33398 -54 -19.001 -66c-11.333 -11.333 -23.333 -18.333 -36 -21s-28 -4 -46 -4c-25.333 0 -44.166 5.5 -56.499 16.5s-18.5 25.5 -18.5 43.5
c0 18.667 6.33301 33.167 19 43.5s30.667 15.5 54 15.5h103v-28zM391.994 715.001c0 18 -3.5 35 -10.5 51s-16.333 30 -28 42s-25.5 21.333 -41.5 28s-33 10 -51 10s-35 -3.5 -51 -10.5s-29.833 -16.333 -41.5 -28s-21 -25.5 -28 -41.5s-10.5 -33 -10.5 -51
s3.5 -35 10.5 -51s16.333 -29.833 28 -41.5s25.5 -21 41.5 -28s33 -10.5 51 -10.5s35 3.5 51 10.5s29.833 16.333 41.5 28s21 25.5 28 41.5s10.5 33 10.5 51zM318.994 715.001c0 -16 -5.66699 -29.833 -17 -41.5s-25 -17.5 -41 -17.5s-29.667 5.83301 -41 17.5
s-17 25.5 -17 41.5s5.66699 29.667 17 41s25 17 41 17s29.667 -5.66699 41 -17s17 -25 17 -41z" />
    <glyph glyph-name="ae" unicode="&#xe6;" horiz-adv-x="838" 
d="M791 220l-0.000976562 58c0 36 -5 69.167 -15 99.5s-24.667 56.5 -44 78.5s-43.166 39.333 -71.499 52s-60.5 19 -96.5 19c-30 0 -57.5 -4.66699 -82.5 -14s-46.833 -23.666 -65.5 -42.999c-35.333 38 -92.333 57 -171 57c-43.333 0 -79.166 -5 -107.499 -15
s-55.166 -29 -80.499 -57l83 -81c6.66699 8 13.334 14.667 20.001 20s13.834 9.66602 21.501 12.999s16.167 5.83301 25.5 7.5s20.333 2.5 33 2.5c34.667 0 59.5 -6.5 74.5 -19.5s22.5 -33.833 22.5 -62.5v-26h-123c-30 0 -56.167 -4 -78.5 -12s-40.833 -18.833 -55.5 -32.5
s-25.667 -29.667 -33 -48s-11 -37.833 -11 -58.5c0 -23.333 3.66699 -45 11 -65s18 -37.333 32 -52c31.333 -31.333 75.666 -47 132.999 -47c18 0 35 0.833008 51 2.5s31.5 5.16699 46.5 10.5s29.5 12.833 43.5 22.5s28 22.167 42 37.5
c23.333 -26.667 50.833 -45.5 82.5 -56.5s65.167 -16.5 100.5 -16.5c23.333 0 44.333 1.83301 63 5.5s35.834 9 51.501 16s30.167 15.5 43.5 25.5s26.666 21.667 39.999 35l-79 77c-16.667 -16.667 -33.334 -29 -50.001 -37s-39.334 -12 -68.001 -12
c-36.667 0 -64.834 10.833 -84.501 32.5s-29.5 49.5 -29.5 83.5h326zM662.999 309h-198c0.666992 11.333 1.83398 21.166 3.50098 29.499s4.5 17.166 8.5 26.499c7.33301 15.333 18.166 28.166 32.499 38.499s32.5 15.5 54.5 15.5s40.167 -5.16699 54.5 -15.5
s25.166 -23.166 32.499 -38.499c4 -9.33301 6.83301 -18.166 8.5 -26.499s2.83398 -18.166 3.50098 -29.499zM336.999 192c0 -32 -6.33398 -54 -19.001 -66c-11.333 -11.333 -23.333 -18.333 -36 -21s-28 -4 -46 -4c-25.333 0 -44.166 5.5 -56.499 16.5
s-18.5 25.5 -18.5 43.5c0 18.667 6.33301 33.167 19 43.5s30.667 15.5 54 15.5h103v-28z" />
    <glyph glyph-name="ccedilla" unicode="&#xe7;" horiz-adv-x="482" 
d="M452 65l-88 86.999c-13.333 -14.667 -26.333 -25.167 -39 -31.5s-27.667 -9.5 -45 -9.5c-30.667 0 -55.334 11.333 -74.001 34c-19.333 24 -29 62.667 -29 116c0 28 2.33301 51 7 69s12 33.333 22 46c18.667 22.667 43.334 34 74.001 34
c17.333 0 32.333 -3.16699 45 -9.5s25.667 -16.833 39 -31.5l88 88c-23.333 24 -48.833 41.667 -76.5 53s-59.5 17 -95.5 17c-26 0 -52.833 -4 -80.5 -12s-52.667 -22 -75 -42s-40.833 -47.167 -55.5 -81.5s-22 -77.833 -22 -130.5s7.33301 -96.167 22 -130.5
s33.167 -61.666 55.5 -81.999s47.333 -34.5 75 -42.5s54.5 -12 80.5 -12c36 0 67.833 5.83301 95.5 17.5s53.167 29.5 76.5 53.5zM325 -60.001h-96l-69 -146h121z" />
    <glyph glyph-name="egrave" unicode="&#xe8;" horiz-adv-x="548" 
d="M501 220l0.00195312 58c0 36 -5 69.167 -15 99.5s-24.667 56.5 -44 78.5s-43.166 39.333 -71.499 52s-60.5 19 -96.5 19c-34 0 -64.833 -5.83301 -92.5 -17.5s-51.5 -28.834 -71.5 -51.501s-35.5 -50.5 -46.5 -83.5s-16.5 -70.833 -16.5 -113.5
c0 -52.667 6.83301 -96.167 20.5 -130.5s31.667 -61.666 54 -81.999s48 -34.5 77 -42.5s58.833 -12 89.5 -12c23.333 0 44.333 1.83301 63 5.5s35.834 9 51.501 16s30.167 15.5 43.5 25.5s26.666 21.667 39.999 35l-79 77c-16.667 -16.667 -33.334 -29 -50.001 -37
s-39.334 -12 -68.001 -12c-36.667 0 -64.834 10.833 -84.501 32.5s-29.5 49.5 -29.5 83.5h326zM373.002 309h-198c0.666992 11.333 1.83398 21.166 3.50098 29.499s4.5 17.166 8.5 26.499c7.33301 15.333 18.166 28.166 32.499 38.499s32.5 15.5 54.5 15.5
s40.167 -5.16699 54.5 -15.5s25.166 -23.166 32.499 -38.499c4 -9.33301 6.83301 -18.166 8.5 -26.499s2.83398 -18.166 3.50098 -29.499zM332.002 604l-64 170h-137l114 -170h87z" />
    <glyph glyph-name="eacute" unicode="&#xe9;" horiz-adv-x="548" 
d="M501 220l0.00195312 58c0 36 -5 69.167 -15 99.5s-24.667 56.5 -44 78.5s-43.166 39.333 -71.499 52s-60.5 19 -96.5 19c-34 0 -64.833 -5.83301 -92.5 -17.5s-51.5 -28.834 -71.5 -51.501s-35.5 -50.5 -46.5 -83.5s-16.5 -70.833 -16.5 -113.5
c0 -52.667 6.83301 -96.167 20.5 -130.5s31.667 -61.666 54 -81.999s48 -34.5 77 -42.5s58.833 -12 89.5 -12c23.333 0 44.333 1.83301 63 5.5s35.834 9 51.501 16s30.167 15.5 43.5 25.5s26.666 21.667 39.999 35l-79 77c-16.667 -16.667 -33.334 -29 -50.001 -37
s-39.334 -12 -68.001 -12c-36.667 0 -64.834 10.833 -84.501 32.5s-29.5 49.5 -29.5 83.5h326zM373.002 309h-198c0.666992 11.333 1.83398 21.166 3.50098 29.499s4.5 17.166 8.5 26.499c7.33301 15.333 18.166 28.166 32.499 38.499s32.5 15.5 54.5 15.5
s40.167 -5.16699 54.5 -15.5s25.166 -23.166 32.499 -38.499c4 -9.33301 6.83301 -18.166 8.5 -26.499s2.83398 -18.166 3.50098 -29.499zM423.002 774h-137l-64 -170h87z" />
    <glyph glyph-name="ecircumflex" unicode="&#xea;" horiz-adv-x="548" 
d="M501 220l0.00195312 58c0 36 -5 69.167 -15 99.5s-24.667 56.5 -44 78.5s-43.166 39.333 -71.499 52s-60.5 19 -96.5 19c-34 0 -64.833 -5.83301 -92.5 -17.5s-51.5 -28.834 -71.5 -51.501s-35.5 -50.5 -46.5 -83.5s-16.5 -70.833 -16.5 -113.5
c0 -52.667 6.83301 -96.167 20.5 -130.5s31.667 -61.666 54 -81.999s48 -34.5 77 -42.5s58.833 -12 89.5 -12c23.333 0 44.333 1.83301 63 5.5s35.834 9 51.501 16s30.167 15.5 43.5 25.5s26.666 21.667 39.999 35l-79 77c-16.667 -16.667 -33.334 -29 -50.001 -37
s-39.334 -12 -68.001 -12c-36.667 0 -64.834 10.833 -84.501 32.5s-29.5 49.5 -29.5 83.5h326zM373.002 309h-198c0.666992 11.333 1.83398 21.166 3.50098 29.499s4.5 17.166 8.5 26.499c7.33301 15.333 18.166 28.166 32.499 38.499s32.5 15.5 54.5 15.5
s40.167 -5.16699 54.5 -15.5s25.166 -23.166 32.499 -38.499c4 -9.33301 6.83301 -18.166 8.5 -26.499s2.83398 -18.166 3.50098 -29.499zM461.002 604l-132 169h-104l-132 -169h101l83 91l83 -91h101z" />
    <glyph glyph-name="edieresis" unicode="&#xeb;" horiz-adv-x="548" 
d="M501 220l0.00195312 58c0 36 -5 69.167 -15 99.5s-24.667 56.5 -44 78.5s-43.166 39.333 -71.499 52s-60.5 19 -96.5 19c-34 0 -64.833 -5.83301 -92.5 -17.5s-51.5 -28.834 -71.5 -51.501s-35.5 -50.5 -46.5 -83.5s-16.5 -70.833 -16.5 -113.5
c0 -52.667 6.83301 -96.167 20.5 -130.5s31.667 -61.666 54 -81.999s48 -34.5 77 -42.5s58.833 -12 89.5 -12c23.333 0 44.333 1.83301 63 5.5s35.834 9 51.501 16s30.167 15.5 43.5 25.5s26.666 21.667 39.999 35l-79 77c-16.667 -16.667 -33.334 -29 -50.001 -37
s-39.334 -12 -68.001 -12c-36.667 0 -64.834 10.833 -84.501 32.5s-29.5 49.5 -29.5 83.5h326zM373.002 309h-198c0.666992 11.333 1.83398 21.166 3.50098 29.499s4.5 17.166 8.5 26.499c7.33301 15.333 18.166 28.166 32.499 38.499s32.5 15.5 54.5 15.5
s40.167 -5.16699 54.5 -15.5s25.166 -23.166 32.499 -38.499c4 -9.33301 6.83301 -18.166 8.5 -26.499s2.83398 -18.166 3.50098 -29.499zM443.002 606v125h-111v-125h111zM222.002 606v125h-111v-125h111z" />
    <glyph glyph-name="igrave" unicode="&#xec;" horiz-adv-x="275" 
d="M203 0v521h-130v-521h130zM275 604l-64 170h-137l114 -170h87z" />
    <glyph glyph-name="iacute" unicode="&#xed;" horiz-adv-x="275" 
d="M203 0v521h-130v-521h130zM275 774h-137l-64 -170h87z" />
    <glyph glyph-name="icircumflex" unicode="&#xee;" horiz-adv-x="275" 
d="M203 0v521h-130v-521h130zM441 604l-132 169h-104l-132 -169h101l83 91l83 -91h101z" />
    <glyph glyph-name="idieresis" unicode="&#xef;" horiz-adv-x="275" 
d="M203 0v521h-130v-521h130zM406 606v125h-111v-125h111zM185 606v125h-111v-125h111z" />
    <glyph glyph-name="eth" unicode="&#xf0;" 
d="M486 254c0 24.667 -1 46.499 -3 65.499s-5.33301 37.333 -10 55s-11 35.667 -19 54s-18 39.5 -30 63.5l-40 77h46v91h-92l-31 60h-139l31 -60h-68v-91h114l34 -62c-13.333 1.33301 -26.333 1.33301 -39 0s-25 -3.66602 -37 -6.99902c-38 -10 -67.667 -26.333 -89 -49
c-23.333 -24 -38.833 -51.333 -46.5 -82s-11.5 -69 -11.5 -115s3.83301 -84.5 11.5 -115.5s23.167 -58.5 46.5 -82.5c16 -16.667 36.667 -31.167 62 -43.5s57 -18.5 95 -18.5s69.667 6.16699 95 18.5s46 26.833 62 43.5c23.333 24 38.833 51.5 46.5 82.5
s11.5 69.5 11.5 115.5zM356 253.999c0 -25.333 -1.33301 -48.5 -4 -69.5s-10.334 -38.167 -23.001 -51.5c-14.667 -14.667 -34 -22 -58 -22c-23.333 0 -42.333 7.33301 -57 22c-12.667 13.333 -20.5 30.5 -23.5 51.5s-4.5 44.167 -4.5 69.5s1.5 48.333 4.5 69
s10.833 37.667 23.5 51c14.667 14.667 33.667 22 57 22c24 0 43.333 -7.33301 58 -22c12.667 -13.333 20.334 -30.333 23.001 -51s4 -43.667 4 -69z" />
    <glyph glyph-name="ntilde" unicode="&#xf1;" horiz-adv-x="573" 
d="M506 0l0.00390625 333.001c0 28.667 -3.5 55.167 -10.5 79.5s-21.167 47.166 -42.5 68.499c-14.667 14.667 -32.334 26 -53.001 34s-44 12 -70 12c-24 0 -47.333 -4.5 -70 -13.5s-42.667 -22.5 -60 -40.5v48h-127v-521h130v315c0 18 2.66699 33 8 45
s12.166 21.667 20.499 29s17.666 12.666 27.999 15.999s20.5 5 30.5 5s20.167 -1.66699 30.5 -5s19.666 -8.66602 27.999 -15.999s15 -17 20 -29s7.5 -27 7.5 -45v-315h130zM470.004 674.001l-58 56.999c-13.333 -13.333 -24.333 -21.5 -33 -24.5s-17.334 -4.5 -26.001 -4.5
c-10 0 -19.167 1.5 -27.5 4.5s-17.5 7.5 -27.5 13.5c-14 8.66699 -26.5 14.667 -37.5 18s-24.167 5 -39.5 5c-19.333 0 -37.333 -4.33301 -54 -13s-36 -24 -58 -46l56 -57c13.333 13.333 24.333 21.5 33 24.5s17.334 4.5 26.001 4.5c10 0 19.5 -1.66699 28.5 -5
s18.167 -7.66602 27.5 -12.999c14 -8 26.667 -13.833 38 -17.5s24.333 -5.5 39 -5.5c19.333 0 37.5 4.33301 54.5 13s36.5 24 58.5 46z" />
    <glyph glyph-name="ograve" unicode="&#xf2;" 
d="M492 261c0 47.333 -4 86.666 -12 117.999s-23.667 59.333 -47 84c-16 17.333 -37.333 32.333 -64 45s-59.334 19 -98.001 19s-71.167 -6.33301 -97.5 -19s-47.5 -27.667 -63.5 -45c-23.333 -24.667 -39 -52.667 -47 -84s-12 -70.666 -12 -117.999s4 -86.833 12 -118.5
s23.667 -59.834 47 -84.501c16 -17.333 37.167 -32.333 63.5 -45s58.833 -19 97.5 -19s71.334 6.33301 98.001 19s48 27.667 64 45c23.333 24.667 39 52.834 47 84.501s12 71.167 12 118.5zM362 261c0 -27.333 -1.66699 -52 -5 -74s-11.666 -39.667 -24.999 -53
c-15.333 -15.333 -35.666 -23 -60.999 -23c-24.667 0 -44.667 7.66699 -60 23c-13.333 13.333 -21.666 31 -24.999 53s-5 46.667 -5 74s1.66699 51.833 5 73.5s11.666 39.167 24.999 52.5c15.333 15.333 35.333 23 60 23c25.333 0 45.666 -7.66699 60.999 -23
c13.333 -13.333 21.666 -30.833 24.999 -52.5s5 -46.167 5 -73.5zM323 604l-64 170h-137l114 -170h87z" />
    <glyph glyph-name="oacute" unicode="&#xf3;" 
d="M492 261c0 47.333 -4 86.666 -12 117.999s-23.667 59.333 -47 84c-16 17.333 -37.333 32.333 -64 45s-59.334 19 -98.001 19s-71.167 -6.33301 -97.5 -19s-47.5 -27.667 -63.5 -45c-23.333 -24.667 -39 -52.667 -47 -84s-12 -70.666 -12 -117.999s4 -86.833 12 -118.5
s23.667 -59.834 47 -84.501c16 -17.333 37.167 -32.333 63.5 -45s58.833 -19 97.5 -19s71.334 6.33301 98.001 19s48 27.667 64 45c23.333 24.667 39 52.834 47 84.501s12 71.167 12 118.5zM362 261c0 -27.333 -1.66699 -52 -5 -74s-11.666 -39.667 -24.999 -53
c-15.333 -15.333 -35.666 -23 -60.999 -23c-24.667 0 -44.667 7.66699 -60 23c-13.333 13.333 -21.666 31 -24.999 53s-5 46.667 -5 74s1.66699 51.833 5 73.5s11.666 39.167 24.999 52.5c15.333 15.333 35.333 23 60 23c25.333 0 45.666 -7.66699 60.999 -23
c13.333 -13.333 21.666 -30.833 24.999 -52.5s5 -46.167 5 -73.5zM418 774h-137l-64 -170h87z" />
    <glyph glyph-name="ocircumflex" unicode="&#xf4;" 
d="M492 261c0 47.333 -4 86.666 -12 117.999s-23.667 59.333 -47 84c-16 17.333 -37.333 32.333 -64 45s-59.334 19 -98.001 19s-71.167 -6.33301 -97.5 -19s-47.5 -27.667 -63.5 -45c-23.333 -24.667 -39 -52.667 -47 -84s-12 -70.666 -12 -117.999s4 -86.833 12 -118.5
s23.667 -59.834 47 -84.501c16 -17.333 37.167 -32.333 63.5 -45s58.833 -19 97.5 -19s71.334 6.33301 98.001 19s48 27.667 64 45c23.333 24.667 39 52.834 47 84.501s12 71.167 12 118.5zM362 261c0 -27.333 -1.66699 -52 -5 -74s-11.666 -39.667 -24.999 -53
c-15.333 -15.333 -35.666 -23 -60.999 -23c-24.667 0 -44.667 7.66699 -60 23c-13.333 13.333 -21.666 31 -24.999 53s-5 46.667 -5 74s1.66699 51.833 5 73.5s11.666 39.167 24.999 52.5c15.333 15.333 35.333 23 60 23c25.333 0 45.666 -7.66699 60.999 -23
c13.333 -13.333 21.666 -30.833 24.999 -52.5s5 -46.167 5 -73.5zM456 604l-132 169h-104l-132 -169h101l83 91l83 -91h101z" />
    <glyph glyph-name="otilde" unicode="&#xf5;" 
d="M492 261c0 47.333 -4 86.666 -12 117.999s-23.667 59.333 -47 84c-16 17.333 -37.333 32.333 -64 45s-59.334 19 -98.001 19s-71.167 -6.33301 -97.5 -19s-47.5 -27.667 -63.5 -45c-23.333 -24.667 -39 -52.667 -47 -84s-12 -70.666 -12 -117.999s4 -86.833 12 -118.5
s23.667 -59.834 47 -84.501c16 -17.333 37.167 -32.333 63.5 -45s58.833 -19 97.5 -19s71.334 6.33301 98.001 19s48 27.667 64 45c23.333 24.667 39 52.834 47 84.501s12 71.167 12 118.5zM362 261c0 -27.333 -1.66699 -52 -5 -74s-11.666 -39.667 -24.999 -53
c-15.333 -15.333 -35.666 -23 -60.999 -23c-24.667 0 -44.667 7.66699 -60 23c-13.333 13.333 -21.666 31 -24.999 53s-5 46.667 -5 74s1.66699 51.833 5 73.5s11.666 39.167 24.999 52.5c15.333 15.333 35.333 23 60 23c25.333 0 45.666 -7.66699 60.999 -23
c13.333 -13.333 21.666 -30.833 24.999 -52.5s5 -46.167 5 -73.5zM452 674l-58 56.999c-13.333 -13.333 -24.333 -21.5 -33 -24.5s-17.334 -4.5 -26.001 -4.5c-10 0 -19.167 1.5 -27.5 4.5s-17.5 7.5 -27.5 13.5c-14 8.66699 -26.5 14.667 -37.5 18s-24.167 5 -39.5 5
c-19.333 0 -37.333 -4.33301 -54 -13s-36 -24 -58 -46l56 -57c13.333 13.333 24.333 21.5 33 24.5s17.334 4.5 26.001 4.5c10 0 19.5 -1.66699 28.5 -5s18.167 -7.66602 27.5 -12.999c14 -8 26.667 -13.833 38 -17.5s24.333 -5.5 39 -5.5c19.333 0 37.5 4.33301 54.5 13
s36.5 24 58.5 46z" />
    <glyph glyph-name="odieresis" unicode="&#xf6;" 
d="M492 261c0 47.333 -4 86.666 -12 117.999s-23.667 59.333 -47 84c-16 17.333 -37.333 32.333 -64 45s-59.334 19 -98.001 19s-71.167 -6.33301 -97.5 -19s-47.5 -27.667 -63.5 -45c-23.333 -24.667 -39 -52.667 -47 -84s-12 -70.666 -12 -117.999s4 -86.833 12 -118.5
s23.667 -59.834 47 -84.501c16 -17.333 37.167 -32.333 63.5 -45s58.833 -19 97.5 -19s71.334 6.33301 98.001 19s48 27.667 64 45c23.333 24.667 39 52.834 47 84.501s12 71.167 12 118.5zM362 261c0 -27.333 -1.66699 -52 -5 -74s-11.666 -39.667 -24.999 -53
c-15.333 -15.333 -35.666 -23 -60.999 -23c-24.667 0 -44.667 7.66699 -60 23c-13.333 13.333 -21.666 31 -24.999 53s-5 46.667 -5 74s1.66699 51.833 5 73.5s11.666 39.167 24.999 52.5c15.333 15.333 35.333 23 60 23c25.333 0 45.666 -7.66699 60.999 -23
c13.333 -13.333 21.666 -30.833 24.999 -52.5s5 -46.167 5 -73.5zM438 606v125h-111v-125h111zM217 606v125h-111v-125h111z" />
    <glyph glyph-name="divide" unicode="&#xf7;" 
d="M337 423v130h-130v-130h130zM497 225v121h-451v-121h451zM337 18v130h-130v-130h130z" />
    <glyph glyph-name="oslash" unicode="&#xf8;" 
d="M492 261c0 47.333 -4.00098 86.665 -12.001 117.998s-23.667 59.333 -47 84l-2 1l60 101h-80l-35 -60c-29.333 14.667 -64.333 22 -105 22c-38.667 0 -71.167 -6.33301 -97.5 -19s-47.5 -27.667 -63.5 -45c-23.333 -24.667 -39 -52.667 -47 -84s-12 -70.666 -12 -117.999
s3.83301 -87 11.5 -119s23.5 -60 47.5 -84l1 -1l-59 -101h79l36 61c14 -7.33301 29.5 -13 46.5 -17s36.167 -6 57.5 -6c38.667 0 71.334 6.33301 98.001 19s48 27.667 64 45c23.333 24.667 39 52.834 47 84.501s12 71.167 12 118.5zM319.999 396.999l-131.999 -222
c-3.33301 12 -5.33301 25.333 -6 40s-1 30 -1 46c0 27.333 1.66699 51.833 5 73.5s11.666 39.167 24.999 52.5c15.333 15.333 35.333 23 60 23c18.667 0 35 -4.33301 49 -13zM362 260.999c0 -27.333 -1.66895 -52 -5.00195 -74s-11.666 -39.667 -24.999 -53
c-15.333 -15.333 -35.666 -23 -60.999 -23c-18 0 -34 4.33301 -48 13l131 222c3.33301 -12 5.5 -25.167 6.5 -39.5s1.5 -29.5 1.5 -45.5z" />
    <glyph glyph-name="ugrave" unicode="&#xf9;" horiz-adv-x="573" 
d="M500 0l-0.00390625 520.999h-130v-315c0 -18 -2.66699 -33 -8 -45s-12.166 -21.667 -20.499 -29s-17.666 -12.666 -27.999 -15.999s-20.5 -5 -30.5 -5s-20.167 1.66699 -30.5 5s-19.666 8.66602 -27.999 15.999s-15 17 -20 29s-7.5 27 -7.5 45v315h-130v-333
c0 -28.667 3.5 -55.167 10.5 -79.5s21.167 -47.166 42.5 -68.499c14.667 -14.667 32.334 -26 53.001 -34s44 -12 70 -12c24 0 47.333 4.5 70 13.5s42.667 22.5 60 40.5v-48h127zM337.996 603.999l-64 170h-137l114 -170h87z" />
    <glyph glyph-name="uacute" unicode="&#xfa;" horiz-adv-x="573" 
d="M500 0l-0.00390625 520.999h-130v-315c0 -18 -2.66699 -33 -8 -45s-12.166 -21.667 -20.499 -29s-17.666 -12.666 -27.999 -15.999s-20.5 -5 -30.5 -5s-20.167 1.66699 -30.5 5s-19.666 8.66602 -27.999 15.999s-15 17 -20 29s-7.5 27 -7.5 45v315h-130v-333
c0 -28.667 3.5 -55.167 10.5 -79.5s21.167 -47.166 42.5 -68.499c14.667 -14.667 32.334 -26 53.001 -34s44 -12 70 -12c24 0 47.333 4.5 70 13.5s42.667 22.5 60 40.5v-48h127zM428.996 773.999h-137l-64 -170h87z" />
    <glyph glyph-name="ucircumflex" unicode="&#xfb;" horiz-adv-x="573" 
d="M500 0l-0.00390625 520.999h-130v-315c0 -18 -2.66699 -33 -8 -45s-12.166 -21.667 -20.499 -29s-17.666 -12.666 -27.999 -15.999s-20.5 -5 -30.5 -5s-20.167 1.66699 -30.5 5s-19.666 8.66602 -27.999 15.999s-15 17 -20 29s-7.5 27 -7.5 45v315h-130v-333
c0 -28.667 3.5 -55.167 10.5 -79.5s21.167 -47.166 42.5 -68.499c14.667 -14.667 32.334 -26 53.001 -34s44 -12 70 -12c24 0 47.333 4.5 70 13.5s42.667 22.5 60 40.5v-48h127zM466.996 603.999l-132 169h-104l-132 -169h101l83 91l83 -91h101z" />
    <glyph glyph-name="udieresis" unicode="&#xfc;" horiz-adv-x="573" 
d="M500 0l-0.00390625 520.999h-130v-315c0 -18 -2.66699 -33 -8 -45s-12.166 -21.667 -20.499 -29s-17.666 -12.666 -27.999 -15.999s-20.5 -5 -30.5 -5s-20.167 1.66699 -30.5 5s-19.666 8.66602 -27.999 15.999s-15 17 -20 29s-7.5 27 -7.5 45v315h-130v-333
c0 -28.667 3.5 -55.167 10.5 -79.5s21.167 -47.166 42.5 -68.499c14.667 -14.667 32.334 -26 53.001 -34s44 -12 70 -12c24 0 47.333 4.5 70 13.5s42.667 22.5 60 40.5v-48h127zM448.996 605.999v125h-111v-125h111zM227.996 605.999v125h-111v-125h111z" />
    <glyph glyph-name="yacute" unicode="&#xfd;" horiz-adv-x="494" 
d="M490 521h-137l-104 -322l-108 322h-137l178 -484l-22 -64c-6.66699 -19.333 -14.5 -32 -23.5 -38s-22.833 -9 -41.5 -9h-30v-117h51c21.333 0 41.5 2.83301 60.5 8.5s36.167 16.167 51.5 31.5c14.667 14.667 27.667 37 39 67zM391 774h-137l-64 -170h87z" />
    <glyph glyph-name="thorn" unicode="&#xfe;" horiz-adv-x="562" 
d="M509 261c0 19.333 -0.333008 39.1689 -1 59.502s-2.66699 40.166 -6 59.499s-8.66602 37.5 -15.999 54.5s-17.333 32.167 -30 45.5c-14.667 14.667 -33.167 26.167 -55.5 34.5s-46.166 12.5 -71.499 12.5c-26.667 0 -50 -3.83301 -70 -11.5s-38.667 -21.167 -56 -40.5
v237h-130v-903h130v237c17.333 -19.333 36 -32.833 56 -40.5s43.333 -11.5 70 -11.5c25.333 0 49.166 4.16699 71.499 12.5s40.833 19.833 55.5 34.5c12.667 12.667 22.667 27.667 30 45s12.666 35.666 15.999 54.999s5.33301 39.333 6 60s1 40.667 1 60zM379 261.003
c0 -21.333 -1 -41.166 -3 -59.499s-6 -34.166 -12 -47.499s-14.833 -23.833 -26.5 -31.5s-27.167 -11.5 -46.5 -11.5s-34.833 3.83301 -46.5 11.5s-20.5 18.167 -26.5 31.5s-10 29.166 -12 47.499s-3 38.166 -3 59.499s1 41 3 59s6 33.667 12 47s14.833 23.833 26.5 31.5
s27.167 11.5 46.5 11.5s34.833 -3.83301 46.5 -11.5s20.5 -18.167 26.5 -31.5s10 -29 12 -47s3 -37.667 3 -59z" />
    <glyph glyph-name="ydieresis" unicode="&#xff;" horiz-adv-x="494" 
d="M490 521h-137l-104 -322l-108 322h-137l178 -484l-22 -64c-6.66699 -19.333 -14.5 -32 -23.5 -38s-22.833 -9 -41.5 -9h-30v-117h51c21.333 0 41.5 2.83301 60.5 8.5s36.167 16.167 51.5 31.5c14.667 14.667 27.667 37 39 67zM411 606v125h-111v-125h111zM190 606v125
h-111v-125h111z" />
    <glyph glyph-name="OE" unicode="&#x152;" horiz-adv-x="966" 
d="M912 0l0.00195312 122.998h-328v35c0 16.667 0.166992 34.167 0.5 52.5s0.5 35.5 0.5 51.5v36h278v122h-278v34c0 16 -0.166992 32.833 -0.5 50.5s-0.5 34.167 -0.5 49.5v35h327v123h-465v-44c-17.333 18 -37.5 30.833 -60.5 38.5s-45.5 11.5 -67.5 11.5
c-40.667 0 -76 -6.16699 -106 -18.5s-57.667 -31.166 -83 -56.499c-18 -18 -31.667 -37.167 -41 -57.5s-16.166 -42.5 -20.499 -66.5s-6.83301 -49.5 -7.5 -76.5s-1 -55.833 -1 -86.5s0.333008 -59.5 1 -86.5s3.16699 -52.5 7.5 -76.5s11.166 -46.167 20.499 -66.5
s23 -39.5 41 -57.5c25.333 -25.333 53 -44.166 83 -56.499s65.333 -18.5 106 -18.5c21.333 0 43.666 3.83301 66.999 11.5s43.666 20.5 60.999 38.5v-44h466zM446.002 355.998c0 -34 -0.5 -62.167 -1.5 -84.5s-2.83301 -40.833 -5.5 -55.5s-6.33398 -26.5 -11.001 -35.5
s-10.334 -17.167 -17.001 -24.5c-10 -11.333 -22.5 -20.5 -37.5 -27.5s-32.167 -10.5 -51.5 -10.5s-36.666 3.5 -51.999 10.5s-28 16.167 -38 27.5c-6.66699 7.33301 -12.167 15.5 -16.5 24.5s-7.83301 20.833 -10.5 35.5s-4.5 33.167 -5.5 55.5s-1.5 50.5 -1.5 84.5
s0.5 62.167 1.5 84.5s2.83301 40.833 5.5 55.5s6.16699 26.5 10.5 35.5s9.83301 17.167 16.5 24.5c10 11.333 22.667 20.5 38 27.5s32.666 10.5 51.999 10.5s36.5 -3.5 51.5 -10.5s27.5 -16.167 37.5 -27.5c6.66699 -7.33301 12.334 -15.5 17.001 -24.5
s8.33398 -20.833 11.001 -35.5s4.5 -33.167 5.5 -55.5s1.5 -50.5 1.5 -84.5z" />
    <glyph glyph-name="oe" unicode="&#x153;" horiz-adv-x="863" 
d="M816 220l0.000976562 58.001c0 36 -5 69.167 -15 99.5s-24.667 56.5 -44 78.5s-43.166 39.333 -71.499 52s-60.5 19 -96.5 19c-66.667 0 -119 -23 -157 -69c-16 20 -37.5 36.5 -64.5 49.5s-59.167 19.5 -96.5 19.5c-38.667 0 -71.167 -6.33301 -97.5 -19
s-47.5 -27.667 -63.5 -45c-23.333 -24.667 -39 -52.667 -47 -84s-12 -70.666 -12 -117.999s4 -86.833 12 -118.5s23.667 -59.834 47 -84.501c16 -17.333 37.167 -32.333 63.5 -45s58.833 -19 97.5 -19c36 0 67.333 6.16699 94 18.5s48 28.166 64 47.499
c21.333 -24 47.166 -41 77.499 -51s62.5 -15 96.5 -15c23.333 0 44.333 1.83301 63 5.5s35.834 9 51.501 16s30.167 15.5 43.5 25.5s26.666 21.667 39.999 35l-80 77c-16.667 -16.667 -33.167 -29 -49.5 -37s-38.833 -12 -67.5 -12c-36.667 0 -64.834 10.833 -84.501 32.5
s-29.5 49.5 -29.5 83.5h326zM687.001 309.001h-196.999c0.666992 11.333 1.66699 21.166 3 29.499s4 17.166 8 26.499c7.33301 15.333 18.333 28.166 33 38.499s33 15.5 55 15.5s40.167 -5.16699 54.5 -15.5s25.166 -23.166 32.499 -38.499
c4 -9.33301 6.66699 -18.166 8 -26.499s2.33301 -18.166 3 -29.499zM362.002 261.001c0 -27.333 -1.66699 -52 -5 -74s-11.666 -39.667 -24.999 -53c-15.333 -15.333 -35.666 -23 -60.999 -23c-24.667 0 -44.667 7.66699 -60 23c-13.333 13.333 -21.666 31 -24.999 53
s-5 46.667 -5 74s1.66699 51.833 5 73.5s11.666 39.167 24.999 52.5c15.333 15.333 35.333 23 60 23c25.333 0 45.666 -7.66699 60.999 -23c13.333 -13.333 21.666 -30.833 24.999 -52.5s5 -46.167 5 -73.5z" />
    <glyph glyph-name="Scaron" unicode="&#x160;" horiz-adv-x="591" 
d="M543 210c0 32 -4.33789 60.667 -13.0049 86s-22.667 47 -42 65c-15.333 14 -33.666 25.5 -54.999 34.5s-48.333 15.833 -81 20.5l-84 12c-14.667 2 -27.5 5.5 -38.5 10.5s-20.167 10.833 -27.5 17.5c-7.33301 7.33301 -12.666 15.333 -15.999 24s-5 17.667 -5 27
c0 24.667 9 45.834 27 63.501s45.667 26.5 83 26.5c23.333 0 47.833 -2.83301 73.5 -8.5s49.834 -19.167 72.501 -40.5l88 87c-30.667 30 -64.334 51.333 -101.001 64s-79.667 19 -129 19c-38.667 0 -73.334 -5.33301 -104.001 -16s-56.667 -25.5 -78 -44.5
s-37.666 -41.667 -48.999 -68s-17 -55.5 -17 -87.5c0 -59.333 17 -106 51 -140c31.333 -30.667 77.333 -50.334 138 -59.001l86 -12c16.667 -2.66699 29.5 -5.83398 38.5 -9.50098s17.167 -8.83398 24.5 -15.501c14.667 -14 22 -34 22 -60
c0 -28.667 -10.667 -50.5 -32 -65.5s-52.666 -22.5 -93.999 -22.5c-33.333 0 -64.666 4.33301 -93.999 13s-55.333 24.334 -78 47.001l-90 -90c34.667 -35.333 73.167 -59.833 115.5 -73.5s90.5 -20.5 144.5 -20.5c37.333 0 72 4.83301 104 14.5s59.833 23.667 83.5 42
s42.334 40.833 56.001 67.5s20.5 57.334 20.5 92.001zM477.995 950h-101l-83 -90l-83 90h-101l132 -169h104z" />
    <glyph glyph-name="scaron" unicode="&#x161;" horiz-adv-x="501" 
d="M465 164c0 44 -12.834 79.1689 -38.501 105.502s-64.5 42.166 -116.5 47.499l-82 8c-11.333 0.666992 -20.5 2.66699 -27.5 6s-12.5 7 -16.5 11s-6.66699 8.5 -8 13.5s-2 9.83301 -2 14.5c0 13.333 5.83301 25 17.5 35s30.5 15 56.5 15c22.667 0 44.667 -2.5 66 -7.5
s39.666 -14.167 54.999 -27.5l80 81c-25.333 23.333 -54.666 39.333 -87.999 48s-70.333 13 -111 13c-26.667 0 -52.167 -3.66699 -76.5 -11s-45.666 -18 -63.999 -32s-33 -31.333 -44 -52s-16.5 -44.334 -16.5 -71.001c0 -48 13.5 -83.167 40.5 -105.5
s64.167 -35.833 111.5 -40.5l82 -8c20.667 -2 35 -7.16699 43 -15.5s12 -19.166 12 -32.499c0 -10 -2.66699 -18.333 -8 -25s-12.333 -12.167 -21 -16.5s-18.5 -7.5 -29.5 -9.5s-22.167 -3 -33.5 -3c-20 0 -42.833 2.83301 -68.5 8.5s-49.167 19.167 -70.5 40.5l-85 -85
c16.667 -16.667 33.667 -29.834 51 -39.501s35.333 -17.167 54 -22.5s37.667 -8.83301 57 -10.5s39.333 -2.5 60 -2.5c30.667 0 59.5 3.5 86.5 10.5s50.5 17.5 70.5 31.5s35.667 31.667 47 53s17 46.333 17 75zM433.999 773.002h-101l-83 -90l-83 90h-101l132 -169h104z" />
    <glyph glyph-name="Ydieresis" unicode="&#x178;" horiz-adv-x="572" 
d="M569 712h-151l-131 -287l-133 287h-151l214 -420v-292h138v292zM451 783v125h-111v-125h111zM230 783v125h-111v-125h111z" />
    <glyph glyph-name="florin" unicode="&#x192;" horiz-adv-x="427" 
d="M397 610v109l-74 1c-26.667 0 -50.167 -4.16699 -70.5 -12.5s-37.833 -19.5 -52.5 -33.5s-26.5 -30 -35.5 -48s-15.167 -36.333 -18.5 -55l-31 -174h-84v-100h67l-87 -488h130l87 488h113v100h-96l29 166c5.33301 31.333 23.333 47 54 47h69z" />
    <glyph glyph-name="circumflex" unicode="&#x2c6;" horiz-adv-x="500" 
d="M434 604l-132 169h-104l-132 -169h101l83 91l83 -91h101z" />
    <glyph glyph-name="tilde" unicode="&#x2dc;" horiz-adv-x="500" 
d="M430 674l-58 56.999c-13.333 -13.333 -24.333 -21.5 -33 -24.5s-17.334 -4.5 -26.001 -4.5c-10 0 -19.167 1.5 -27.5 4.5s-17.5 7.5 -27.5 13.5c-14 8.66699 -26.5 14.667 -37.5 18s-24.167 5 -39.5 5c-19.333 0 -37.333 -4.33301 -54 -13s-36 -24 -58 -46l56 -57
c13.333 13.333 24.333 21.5 33 24.5s17.334 4.5 26.001 4.5c10 0 19.5 -1.66699 28.5 -5s18.167 -7.66602 27.5 -12.999c14 -8 26.667 -13.833 38 -17.5s24.333 -5.5 39 -5.5c19.333 0 37.5 4.33301 54.5 13s36.5 24 58.5 46z" />
    <glyph glyph-name="endash" unicode="&#x2013;" 
d="M493 225v121h-443v-121h443z" />
    <glyph glyph-name="emdash" unicode="&#x2014;" horiz-adv-x="1027" 
d="M968 226v125h-909v-125h909z" />
    <glyph glyph-name="quoteleft" unicode="&#x2018;" horiz-adv-x="273" 
d="M204 589v228l-136 -105v-123h136z" />
    <glyph glyph-name="quoteright" unicode="&#x2019;" horiz-adv-x="273" 
d="M204 588v124h-136v-227z" />
    <glyph glyph-name="quotesinglbase" unicode="&#x201a;" horiz-adv-x="271" 
d="M204 0v124h-136v-228z" />
    <glyph glyph-name="quotedblleft" unicode="&#x201c;" horiz-adv-x="482" 
d="M414 589v228l-136 -105v-123h136zM203 589v228l-135 -105v-123h135z" />
    <glyph glyph-name="quotedblright" unicode="&#x201d;" horiz-adv-x="482" 
d="M414 588v124h-136v-227zM203 588v124h-135v-227z" />
    <glyph glyph-name="quotedblbase" unicode="&#x201e;" horiz-adv-x="485" 
d="M414 0v124h-136v-228zM203 0v124h-135v-228z" />
    <glyph glyph-name="dagger" unicode="&#x2020;" horiz-adv-x="579" 
d="M522 410v117h-168v185h-130v-185h-167v-117h167v-410h130v410h168z" />
    <glyph glyph-name="daggerdbl" unicode="&#x2021;" horiz-adv-x="579" 
d="M522 -6v117h-168v299h168v117h-168v185h-130v-185h-167v-117h167v-299h-167v-117h167v-185h130v185h168z" />
    <glyph glyph-name="bullet" unicode="&#x2022;" horiz-adv-x="493" 
d="M409 334c0 22.667 -4.33301 43.834 -13 63.501s-20.334 36.834 -35.001 51.501s-31.834 26.334 -51.501 35.001s-40.834 13 -63.501 13s-43.834 -4.33301 -63.501 -13s-36.834 -20.334 -51.501 -35.001s-26.334 -31.834 -35.001 -51.501s-13 -40.834 -13 -63.501
s4.33301 -43.834 13 -63.501s20.334 -36.834 35.001 -51.501s31.834 -26.334 51.501 -35.001s40.834 -13 63.501 -13s43.834 4.33301 63.501 13s36.834 20.334 51.501 35.001s26.334 31.834 35.001 51.501s13 40.834 13 63.501z" />
    <glyph glyph-name="ellipsis" unicode="&#x2026;" horiz-adv-x="846" 
d="M778 0v141h-141v-141h141zM493 0v141h-141v-141h141zM210 0v141h-142v-141h142z" />
    <glyph glyph-name="perthousand" unicode="&#x2030;" horiz-adv-x="1211" 
d="M1158 131v99c0 22.667 -3.83301 42.5 -11.5 59.5s-18.167 31.167 -31.5 42.5s-28.833 20 -46.5 26s-36.167 9 -55.5 9c-20 0 -38.667 -3 -56 -9s-32.666 -14.667 -45.999 -26s-23.833 -25.5 -31.5 -42.5s-11.5 -36.833 -11.5 -59.5v-99
c0 -22.667 3.83301 -42.5 11.5 -59.5s18.167 -31.333 31.5 -43s28.666 -20.334 45.999 -26.001s36 -8.5 56 -8.5c19.333 0 37.833 2.83301 55.5 8.5s33.167 14.334 46.5 26.001s23.833 26 31.5 43s11.5 36.833 11.5 59.5zM796 131v99c0 22.667 -3.83301 42.5 -11.5 59.5
s-18.167 31.167 -31.5 42.5s-28.833 20 -46.5 26s-36.167 9 -55.5 9c-20 0 -38.667 -3 -56 -9s-32.666 -14.667 -45.999 -26s-23.833 -25.5 -31.5 -42.5s-11.5 -36.833 -11.5 -59.5v-99c0 -22.667 3.83301 -42.5 11.5 -59.5s18.167 -31.333 31.5 -43
s28.666 -20.334 45.999 -26.001s36 -8.5 56 -8.5c19.333 0 37.833 2.83301 55.5 8.5s33.167 14.334 46.5 26.001s23.833 26 31.5 43s11.5 36.833 11.5 59.5zM644 712h-102l-337 -712h102zM342 482v99c0 22.667 -3.83301 42.5 -11.5 59.5s-18.167 31.167 -31.5 42.5
s-28.833 20 -46.5 26s-36.167 9 -55.5 9c-20 0 -38.667 -3 -56 -9s-32.666 -14.667 -45.999 -26s-23.833 -25.5 -31.5 -42.5s-11.5 -36.833 -11.5 -59.5v-99c0 -22.667 3.83301 -42.5 11.5 -59.5s18.167 -31.333 31.5 -43s28.666 -20.334 45.999 -26.001s36 -8.5 56 -8.5
c19.333 0 37.833 2.83301 55.5 8.5s33.167 14.334 46.5 26.001s23.833 26 31.5 43s11.5 36.833 11.5 59.5zM1064 134c0 -19.333 -4.5 -33.501 -13.5 -42.501s-21.5 -13.5 -37.5 -13.5c-34 0 -51 19 -51 57v91c0 38 17 57 51 57c16 0 28.5 -4.66699 37.5 -14
s13.5 -23.666 13.5 -42.999v-92zM702 134.999c0 -19.333 -4.5 -33.668 -13.5 -43.001s-21.5 -14 -37.5 -14c-34 0 -51 19 -51 57v91c0 38 17 57 51 57c16 0 28.5 -4.66699 37.5 -14s13.5 -23.666 13.5 -42.999v-91zM248 485.997c0 -19.333 -4.5 -33.667 -13.5 -43
s-21.5 -14 -37.5 -14s-28.5 4.66699 -37.5 14s-13.5 23.666 -13.5 42.999v91c0 38 17 57 51 57c16 0 28.5 -4.66699 37.5 -14s13.5 -23.666 13.5 -42.999v-91z" />
    <glyph glyph-name="guilsinglleft" unicode="&#x2039;" horiz-adv-x="350" 
d="M283 27v155l-94 93l94 93v155l-249 -248z" />
    <glyph glyph-name="guilsinglright" unicode="&#x203a;" horiz-adv-x="350" 
d="M316 275l-249 248v-155l95 -93l-95 -93v-155z" />
    <glyph glyph-name="trademark" unicode="&#x2122;" horiz-adv-x="924" 
d="M860 285v427h-95l-122 -228l-122 228h-95v-427h95v252l80 -157h84l80 157v-252h95zM360 627v85h-315v-85h110v-342h95v342h110z" />
    <glyph glyph-name=".null" horiz-adv-x="0" 
 />
    <glyph glyph-name="nonmarkingreturn" horiz-adv-x="232" 
 />
    <glyph glyph-name="DC4" horiz-adv-x="328" 
d="M309 60v74h-39v80h-76v-80h-89l147 293h-86l-147 -293v-74h175v-60h76v60h39z" />
    <glyph glyph-name="notequal" horiz-adv-x="602" 
d="M552 116v122h-226l78 95h148v122h-55l55 67l-79 62l-103 -129h-320v-122h227l-78 -95h-149v-122h55l-55 -67l79 -62l103 129h320z" />
    <glyph glyph-name="infinity" horiz-adv-x="851" 
d="M796 284c0 26 -4.16699 50.667 -12.5 74s-20.5 43.5 -36.5 60.5s-35.833 30.5 -59.5 40.5s-50.834 15 -81.501 15c-36 0 -68.833 -8.5 -98.5 -25.5s-57.167 -40.167 -82.5 -69.5c-25.333 29.333 -52.833 52.5 -82.5 69.5s-62.167 25.5 -97.5 25.5
c-31.333 0 -58.833 -5 -82.5 -15s-43.5 -23.5 -59.5 -40.5s-28 -37.167 -36 -60.5s-12 -48 -12 -74s4 -50.5 12 -73.5s20 -43 36 -60s35.833 -30.333 59.5 -40s51.167 -14.5 82.5 -14.5c35.333 0 67.833 8.33301 97.5 25s57.167 39.667 82.5 69
c25.333 -29.333 52.833 -52.333 82.5 -69s62.5 -25 98.5 -25c30.667 0 57.834 4.83301 81.501 14.5s43.5 23 59.5 40s28.167 37 36.5 60s12.5 47.5 12.5 73.5zM670 281c0 -20.667 -6.5 -36.667 -19.5 -48s-28.167 -17 -45.5 -17c-18 0 -33.833 6.33301 -47.5 19
s-28.167 28 -43.5 46c15.333 18 29.833 33.333 43.5 46s29.5 19 47.5 19c17.333 0 32.5 -5.66699 45.5 -17s19.5 -27.333 19.5 -48zM337 281c-15.333 -18 -30 -33.334 -44 -46.001s-30 -19 -48 -19c-17.333 0 -32.333 5.66699 -45 17s-19 27.333 -19 48
s6.33301 36.834 19 48.501s27.667 17.5 45 17.5c18 0 34 -6.5 48 -19.5s28.667 -28.5 44 -46.5z" />
    <glyph glyph-name="lessequal" horiz-adv-x="1027" 
d="M884 1l-497 498l460 -2l-116 116h-546v-545l116 -116l-1 460l497 -498z" />
    <glyph glyph-name="greaterequal" horiz-adv-x="1027" 
d="M841 69v544h-545l-116 -116l460 2l-498 -498l87 -87l498 498l-2 -459z" />
    <glyph glyph-name="partialdiff" horiz-adv-x="555" 
d="M482 254l-0.000976562 226.999c0 34.667 -4.83301 66.5 -14.5 95.5s-24 54 -43 75s-42.833 37.333 -71.5 49s-62 17.5 -100 17.5c-40 0 -74.667 -4.83301 -104 -14.5s-57.666 -27.5 -84.999 -53.5l81 -82c14.667 14 29.834 24.167 45.501 30.5s34.5 9.5 56.5 9.5
c20 0 36.667 -3.33301 50 -10s24 -15 32 -25s13.667 -20.667 17 -32s5 -21.333 5 -30v-27c-12.667 11.333 -26.5 19 -41.5 23s-30.167 6 -45.5 6c-37.333 0 -68 -6.16699 -92 -18.5s-43.333 -26.166 -58 -41.499c-22.667 -24 -38 -51.333 -46 -82s-12 -69.667 -12 -117
c0 -46 4 -84.5 12 -115.5s23.333 -58.5 46 -82.5c15.333 -16.667 35.666 -31.167 60.999 -43.5s56.666 -18.5 93.999 -18.5s68.833 6.16699 94.5 18.5s46.167 26.833 61.5 43.5c22.667 24 37.834 51.5 45.501 82.5s11.5 69.5 11.5 115.5zM351.999 253.999
c0 -25.333 -1.5 -48.5 -4.5 -69.5s-10.5 -38.167 -22.5 -51.5c-14.667 -14.667 -33.334 -22 -56.001 -22s-41.334 7.33301 -56.001 22c-12 13.333 -19.5 30.5 -22.5 51.5s-4.5 44.167 -4.5 69.5s1.5 48.333 4.5 69s10.5 37.667 22.5 51c14.667 14.667 33.334 22 56.001 22
s41.334 -7.33301 56.001 -22c12 -13.333 19.5 -30.333 22.5 -51s4.5 -43.667 4.5 -69z" />
    <glyph glyph-name="summation" horiz-adv-x="552" 
d="M515 -191v124h-315l146 295v129l-141 279h306v124h-468v-110l186 -355l-189 -376v-110h475z" />
    <glyph glyph-name="product" horiz-adv-x="685" 
d="M602 -191v951h-519v-951h139v828h241v-828h139z" />
    <glyph glyph-name="pi" horiz-adv-x="592" 
d="M515 0v521h-439v-521h130v399h180v-399h129z" />
    <glyph glyph-name="integral" horiz-adv-x="490" 
d="M433 615v110h-65c-57.333 0 -103.5 -15.667 -138.5 -47s-52.5 -76.333 -52.5 -135v-549c0 -24 -6.16699 -41.667 -18.5 -53s-29.833 -17 -52.5 -17h-49v-110h65c57.333 0 103.5 15.5 138.5 46.5s52.5 75.833 52.5 134.5v549c0 24 6.16699 41.833 18.5 53.5
s29.833 17.5 52.5 17.5h49z" />
    <glyph glyph-name="Omega" horiz-adv-x="644" 
d="M585 0l-0.00195312 123h-59c8.66699 9.33301 15.834 18.5 21.501 27.5s10.5 18.167 14.5 27.5c10 24.667 16.333 52.167 19 82.5s4 62.166 4 95.499c0 30.667 -0.333008 59.334 -1 86.001s-3.16699 51.667 -7.5 75s-11.333 45.166 -21 65.499s-23.5 39.5 -41.5 57.5
c-25.333 25.333 -53.5 44.666 -84.5 57.999s-66.833 20 -107.5 20s-76.667 -6.66699 -108 -20s-59.666 -32.666 -84.999 -57.999c-18 -18 -31.833 -37.167 -41.5 -57.5s-16.5 -42.166 -20.5 -65.499s-6.33301 -48.333 -7 -75s-1 -55.334 -1 -86.001
c0 -33.333 1.33301 -65.166 4 -95.499s9 -57.833 19 -82.5c4 -9.33301 8.83301 -18.5 14.5 -27.5s12.834 -18.167 21.501 -27.5h-59v-123h219v109c-23.333 10.667 -41.333 25.334 -54 44.001c-4.66699 6.66699 -8.66699 14.834 -12 24.501s-6 22.167 -8 37.5
s-3.5 33.833 -4.5 55.5s-1.5 47.834 -1.5 78.501c0 34 0.5 62.5 1.5 85.5s2.83301 42.167 5.5 57.5s6.16699 27.833 10.5 37.5s9.83301 18.167 16.5 25.5c10 11.333 22.667 20.666 38 27.999s32.666 11 51.999 11s36.5 -3.66699 51.5 -11s27.5 -16.666 37.5 -27.999
c6.66699 -7.33301 12.167 -15.833 16.5 -25.5s7.83301 -22.167 10.5 -37.5s4.66699 -34.5 6 -57.5s2 -51.5 2 -85.5c0 -30.667 -0.5 -56.834 -1.5 -78.501s-2.5 -40.167 -4.5 -55.5s-4.66699 -27.833 -8 -37.5s-7.33301 -17.834 -12 -24.501
c-12.667 -18.667 -30.667 -33.334 -54 -44.001v-109h219z" />
    <glyph glyph-name="radical" horiz-adv-x="596" 
d="M566 588v124h-195l-143 -464l-84 273h-141l172 -521h105l194 588h92z" />
    <glyph glyph-name="approxequal" horiz-adv-x="606" 
d="M569 393l-83.002 81.998c-18.667 -18.667 -34.5 -30.5 -47.5 -35.5s-26.167 -7.5 -39.5 -7.5c-14.667 0 -28.167 2.33301 -40.5 7s-25.833 10.667 -40.5 18c-21.333 11.333 -41 19.666 -59 24.999s-37.333 8 -58 8c-15.333 0 -29.5 -1.5 -42.5 -4.5s-26 -8 -39 -15
s-26.167 -16 -39.5 -27s-27.666 -24.167 -42.999 -39.5l82 -82c18.667 18.667 34.334 30.334 47.001 35.001s25.667 7 39 7c14.667 0 28.334 -2.16699 41.001 -6.5s26.334 -10.166 41.001 -17.499c21.333 -11.333 41 -19.666 59 -24.999s37.333 -8 58 -8
c15.333 0 29.666 1.5 42.999 4.5s26.5 8 39.5 15s26.167 16 39.5 27s27.666 24.167 42.999 39.5zM568.998 166.998l-81.9961 82.002c-18.667 -18.667 -34.334 -30.334 -47.001 -35.001s-25.667 -7 -39 -7c-14.667 0 -28.334 2.16699 -41.001 6.5
s-26.334 10.166 -41.001 17.499c-21.333 11.333 -40.833 19.666 -58.5 24.999s-36.834 8 -57.501 8c-15.333 0 -29.666 -1.5 -42.999 -4.5s-26.5 -8 -39.5 -15s-26.333 -16 -40 -27s-28.167 -24.167 -43.5 -39.5l83 -82c18.667 18.667 34.5 30.5 47.5 35.5
s26.167 7.5 39.5 7.5c14.667 0 28.167 -2.33301 40.5 -7s25.833 -10.667 40.5 -18c21.333 -11.333 41 -19.666 59 -24.999s37.333 -8 58 -8c15.333 0 29.5 1.5 42.5 4.5s26 8 39 15s26.167 16 39.5 27s27.666 24.167 42.999 39.5z" />
    <glyph glyph-name="Delta" horiz-adv-x="634" 
d="M631 0l-260 712h-108l-260 -712h628zM450 117h-264l134 385z" />
    <glyph glyph-name="nonbreakingspace" horiz-adv-x="232" 
 />
    <glyph glyph-name="lozenge" horiz-adv-x="636" 
d="M581 341l-263 366l-263 -366l263 -367zM435 341l-117 -165l-117 165l117 164z" />
    </font>
</defs>
</svg>
